<?xml version="1.0" encoding="UTF-8"?> <svg xmlns="http://www.w3.org/2000/svg" width="179" height="84" viewBox="0 0 179 84"><g id="allianz-logo" transform="translate(-10077 -9251)"><path id="logo" d="M-10006.253-9262.826a14.966,14.966,0,0,1,15.285-15.271,14.885,14.885,0,0,1,15.285,15.271,14.891,14.891,0,0,1-15.285,15.3A14.972,14.972,0,0,1-10006.253-9262.826Zm2.568,0c0,7.452,5.411,12.892,12.717,12.892s12.714-5.439,12.714-12.892-5.408-12.892-12.714-12.892S-10003.685-9270.279-10003.685-9262.826Zm-49.646,4.98c0-2.123.813-3.476,2.571-4.18a10.773,10.773,0,0,1,1.623-.543c1.082-.228,1.624-.337,3.517-.648v-.352c0-1.244-.405-1.689-1.758-1.689a11.374,11.374,0,0,0-1.219.108,11.911,11.911,0,0,0-2.568.742l-.408.162-.945-2.6a10.05,10.05,0,0,1,2.84-1.081,14.223,14.223,0,0,1,3.382-.393c3.517,0,4.735,1.216,4.735,4.815v6.913q0,1.094,1.218,1.094h.135v1.449h-4.059c-.811,0-1.219-.42-1.219-1.3v-.433a5.4,5.4,0,0,1-1.758,1.216,4.869,4.869,0,0,1-2.568.651C-10052.246-9253.909-10053.33-9255.181-10053.33-9257.846Zm5.14-2.369c-.945.365-1.216.813-1.216,1.977,0,1.056.405,1.446,1.216,1.446a3.871,3.871,0,0,0,2.571-1.27v-2.814A10.9,10.9,0,0,0-10048.19-9260.215Zm-19.209,6.171v-16.18c0-.729-.405-1.068-1.216-1.068h-.271v-1.556h4.192c.947,0,1.489.474,1.489,1.381v17.423Zm-7.572,0v-16.18c0-.729-.407-1.068-1.218-1.068h-.271v-1.556h4.192c.947,0,1.487.474,1.487,1.381v17.423Zm-6.224,0-1.353-4.56h-5.546l-1.353,4.56h-4.329l4.869-14.786a3.207,3.207,0,0,0,.407-1.583c0-.621-.407-.879-1.218-.879h-.543v-1.556h6.764c1.219,0,1.761.364,2.029,1.5l4.869,17.3Zm-6.222-7.562h4.329l-2.029-7.48Zm63.713,7.56v-2.921l6.087-8.5h-3.245c-.813,0-1.219.313-1.219,1.082v.284h-1.486v-2.557c0-1.041.405-1.474,1.486-1.474h8.93v2.9l-5.953,8.493h6.222v2.693Zm-6.358,0v-8.928c0-1.434-.271-1.839-1.219-1.839a3.512,3.512,0,0,0-2.571,1.216v9.551h-4.192v-11.445c0-.771-.405-1.107-1.216-1.107h-.137v-1.529h4.058c.813,0,1.219.433,1.219,1.312v.758c1.893-1.637,3.111-2.231,4.734-2.231a3.373,3.373,0,0,1,2.706,1.068c.539.745.811,1.6.811,3.572v9.6Zm-29.761,0v-11.442c0-.773-.271-1.11-1.081-1.11h-.271v-1.527h4.192a1.273,1.273,0,0,1,1.353,1.391v12.689Zm73.048-.773v-13.729h2.166c1.216,0,1.758.489,1.758,1.705v12.024Zm-6.222,0v-14.839c0-.783-.269-1.039-.947-1.039h-.405v-1.761h3.652c1.219,0,1.759.421,1.759,1.705v15.934Zm-6.087,0v-12.024c0-1.216.542-1.705,1.758-1.705h2.166v13.729Zm-61.281-16.364c0-1.246.813-1.976,2.438-1.976,1.486,0,2.435.729,2.435,1.976,0,1.27-.948,2.014-2.435,2.014C-10059.552-9269.17-10060.365-9269.914-10060.365-9271.184Z" transform="translate(20200.775 18556.098)" fill="#067b02"></path><path id="frame" d="M0,0H179V84H0Z" transform="translate(10077 9251)" fill="none"></path></g></svg> 