<?xml version="1.0" encoding="UTF-8"?> <svg xmlns="http://www.w3.org/2000/svg" width="179" height="84" viewBox="0 0 179 84"><g id="eleaf-logo" transform="translate(-423 -2747)"><path id="frame" d="M0,0H179V84H0Z" transform="translate(423 2747)" fill="none"></path><path id="logo" d="M-11071.623-11237.945c-.025-.1.06-.229.1-.345.124.051.306.062.365.155a1.016,1.016,0,0,0,1.327.507.655.655,0,0,0,.356-.453c.014-.136-.176-.359-.325-.425-.334-.146-.7-.206-1.053-.319a.846.846,0,0,1-.686-.92.919.919,0,0,1,.753-.84,1.409,1.409,0,0,1,1.622.5c.073.133.1.427.025.486-.218.164-.365.031-.473-.218a.91.91,0,0,0-1.321-.13.379.379,0,0,0,.215.6c.37.127.761.2,1.129.331a.906.906,0,0,1,.671.871.957.957,0,0,1-.646.935,5.406,5.406,0,0,1-.693.172C-11070.994-11237.088-11071.5-11237.4-11071.623-11237.945Zm14.269.6a1.984,1.984,0,0,1,.237-3.146,1.448,1.448,0,0,1,2.046.73.53.53,0,0,1,0,.118c-.231.182-.419.19-.568-.11a.8.8,0,0,0-.9-.416.821.821,0,0,0-.807.637,4,4,0,0,0,0,1.339.827.827,0,0,0,.8.646.878.878,0,0,0,.908-.419.926.926,0,0,0,.11-.2c.067-.215.206-.24.385-.164.224.1.149.252.079.41a1.529,1.529,0,0,1-1.407.858A1.473,1.473,0,0,1-11057.354-11237.343Zm29.348-.555a2.029,2.029,0,0,1,.407-2.4,1.813,1.813,0,0,1,1.97-.121,1.633,1.633,0,0,1,.438.543c.046.079-.03.229-.054.345-.124-.045-.313-.057-.364-.146a.9.9,0,0,0-.762-.487,1.065,1.065,0,0,0-1.194.665,1.584,1.584,0,0,0,.28,1.664,1.284,1.284,0,0,0,1.52.071.791.791,0,0,0,.189-.513c0-.039-.221-.13-.348-.161a.723.723,0,0,0-.2-.012.616.616,0,0,1-.218-.017.309.309,0,0,1-.184-.227.3.3,0,0,1,.189-.218,3.148,3.148,0,0,1,.568-.012c.8,0,.753-.13.753.739,0,.647-.079.747-.8,1a2.034,2.034,0,0,1-.67.114A1.729,1.729,0,0,1-11028.007-11237.9Zm11.5.824a1.678,1.678,0,0,1-1.645-1.809,1.66,1.66,0,0,1,1.721-1.766,1.616,1.616,0,0,1,1.6,1.825,1.609,1.609,0,0,1-1.6,1.75Zm-.385-3.02a1.313,1.313,0,0,0-.714,1.35c.077.481.213.959.75,1.129.852.271,1.472-.263,1.469-1.242,0-.807-.444-1.322-1.057-1.322A1.275,1.275,0,0,0-11016.891-11240.093Zm-22.682,3.02a1.671,1.671,0,0,1-1.633-1.812,1.665,1.665,0,0,1,1.681-1.769,1.672,1.672,0,0,1,1.647,1.8,1.643,1.643,0,0,1-1.654,1.78Zm-.062-3.1a1.021,1.021,0,0,0-.942.8,3.313,3.313,0,0,0-.011.942,1.039,1.039,0,0,0,1.251.863c.588-.113.877-.532.908-1.279a5.287,5.287,0,0,0-.13-.664,1,1,0,0,0-.988-.669C-11039.576-11240.173-11039.605-11240.172-11039.635-11240.169Zm27.382,2.85c-.292-1.059-.566-2.12-.847-3.179.352-.172.526-.09.6.238.152.676.316,1.353.479,2.026a2.191,2.191,0,0,0,.093.221c.215-.759.4-1.433.6-2.105.065-.218.063-.476.419-.487s.377.255.438.465c.2.676.383,1.36.592,2.113.054-.147.094-.243.119-.343.161-.636.325-1.272.473-1.915.054-.221.155-.354.391-.295.285.071.141.277.1.431-.232.866-.473,1.729-.713,2.592-.057.2-.057.438-.371.433s-.312-.246-.365-.443c-.209-.739-.41-1.478-.7-2.216-.213.752-.425,1.5-.64,2.255a.94.94,0,0,1-.113.317.284.284,0,0,1-.229.1A.328.328,0,0,1-11012.253-11237.319Zm-40.7-.1c0-.962-.012-1.924.011-2.884a.416.416,0,0,1,.295-.277q.967-.038,1.936,0c.1.006.192.165.291.252-.1.077-.187.216-.286.224a10.883,10.883,0,0,1-1.287.006c-.334-.02-.47.1-.428.431.021.158.021.319.031.515.51,0,.988,0,1.466,0,.176,0,.377-.025.374.246-.006.237-.173.235-.325.235h-.062c-.379,0-.759.011-1.138,0-.232-.006-.348.062-.348.319,0,.772-.023.759.413.744.082,0,.181,0,.3,0s.266,0,.4,0a6.282,6.282,0,0,1,.665.015c.108.008.207.149.312.231-.1.082-.2.227-.3.232-.422.011-.846.009-1.271.009-.246,0-.5,0-.738,0h-.009A.257.257,0,0,1-11052.951-11237.419Zm52.736-.031c-.006-.306-.009-.608-.006-.911,0-.215-.073-.334-.306-.331-.127,0-.255,0-.382,0a6.524,6.524,0,0,0-.719.018.373.373,0,0,0-.255.26c-.034.325.006.659-.025.985a.4.4,0,0,1-.229.291c-.189.06-.3-.054-.3-.269v-2.884c0-.2.1-.34.3-.28a.412.412,0,0,1,.232.295,5.019,5.019,0,0,1,.012.795c-.006.184.045.288.251.283q.57-.009,1.138,0c.221,0,.286-.116.286-.309a5.4,5.4,0,0,1,.02-.8c.018-.1.167-.189.258-.282.085.1.237.192.243.3.025.479.012.959.012,1.44s0,.937,0,1.4c0,.187-.034.32-.267.322h-.006C-11000.2-11237.124-11000.212-11237.281-11000.215-11237.45Zm-60.185-.031c-.079-.229-.2-.574-.362-.616a2.505,2.505,0,0,0-1.157.008c-.147.034-.243.38-.314.6-.1.311-.269.441-.625.306a1.106,1.106,0,0,1,.042-.274c.362-.957.725-1.916,1.109-2.864a.478.478,0,0,1,.354-.252.474.474,0,0,1,.371.229c.427,1,.829,2.009,1.233,3.017a.439.439,0,0,1,0,.145.758.758,0,0,1-.264.059C-11060.194-11237.125-11060.315-11237.241-11060.4-11237.481Zm-.985-2.331c-.139.373-.274.744-.433,1.174h.968c-.161-.433-.3-.807-.441-1.18Zm15.946,2.337c0-.455,0-.911,0-1.366s.009-.914,0-1.37c-.008-.263.079-.394.368-.388.246.006.5.006.741,0,.3,0,.595,0,.892.014.122.006.232.15.351.229-.113.085-.218.235-.337.246a9.592,9.592,0,0,1-1.137.009c-.27-.009-.349.1-.352.359,0,.6-.011.6.586.6a4.534,4.534,0,0,1,.682.006c.113.017.21.145.314.221-.1.082-.2.221-.306.232a5.354,5.354,0,0,1-.911.008c-.291-.02-.382.1-.362.374s0,.558,0,.838c0,.172-.009.328-.252.334h-.019C-11045.425-11237.127-11045.438-11237.29-11045.438-11237.476Zm39.471-.014c-.006-.38,0-.759,0-1.138h.011c0-.382-.011-.762,0-1.141.012-.249-.09-.343-.334-.331a2.062,2.062,0,0,1-.565-.015.32.32,0,0,1-.212-.234.316.316,0,0,1,.212-.232c.758-.017,1.52-.02,2.278,0,.082,0,.164.142.246.219a2.877,2.877,0,0,1-.252.26c-.021.018-.057.012-.094.009a.327.327,0,0,0-.054,0c-.713.017-.713.017-.713.747v1.862c0,.181.009.359-.264.359h-.006C-11005.987-11237.127-11005.962-11237.321-11005.968-11237.489Zm-27.682.033a7.627,7.627,0,0,0-.521-.792.955.955,0,0,0-.3-.283c-.523-.266-.854-.06-.854.523a2.642,2.642,0,0,1-.018.6.412.412,0,0,1-.269.257c-.065.018-.246-.144-.246-.229-.018-.985-.02-1.973,0-2.96,0-.088.184-.241.285-.244a15.774,15.774,0,0,1,1.594.009.868.868,0,0,1,.865.759.86.86,0,0,1-.528,1.013,1.131,1.131,0,0,0-.153.13l.974,1.472a1.092,1.092,0,0,1-.35.069A.526.526,0,0,1-11033.649-11237.456Zm-1.446-2.648a.28.28,0,0,0-.206.167c-.179.574.006.82.589.82h.076v.006c.175-.008.354-.008.529-.025a.468.468,0,0,0,.461-.506.417.417,0,0,0-.428-.444c-.208-.018-.417-.024-.625-.024C-11034.832-11240.111-11034.964-11240.108-11035.1-11240.1Zm12.188,2.717c-.02-.962-.009-1.924-.009-2.884,0-.218.076-.331.309-.325.507.012,1.013-.006,1.52.022a.915.915,0,0,1,.934.736.9.9,0,0,1-.549,1.05,1.073,1.073,0,0,0-.145.115c.329.493.648.966.982,1.466-.4.142-.646.094-.82-.226a6.074,6.074,0,0,0-.5-.762,1.11,1.11,0,0,0-.383-.354c-.534-.249-.843-.04-.843.543a3.3,3.3,0,0,1-.012.605c-.017.1-.142.182-.218.27C-11022.731-11237.215-11022.907-11237.3-11022.907-11237.388Zm.725-2.72a.259.259,0,0,0-.2.128c-.218.506.028.862.58.862h.113v-.017a4.134,4.134,0,0,0,.492,0c.271-.031.484-.149.5-.467s-.2-.461-.467-.486a5.4,5.4,0,0,0-.562-.024C-11021.877-11240.114-11022.029-11240.111-11022.183-11240.107Zm-44.681,2.72c-.025-.492-.011-.984-.011-1.478h0v-1.4c0-.212.076-.334.309-.331.175,0,.354,0,.532,0,.288,0,.58,0,.868.02a.948.948,0,0,1,.951.977.991.991,0,0,1-.939,1.075,5.4,5.4,0,0,1-.643.02c-.532,0-.529,0-.532.549a2.374,2.374,0,0,1-.017.566.419.419,0,0,1-.283.24h-.007A.355.355,0,0,1-11066.863-11237.388Zm.532-2.037a.645.645,0,0,0,.012.224c.039.076.121.189.184.189a6.014,6.014,0,0,0,1.011-.051c.271-.043.379-.267.364-.538a.471.471,0,0,0-.446-.476,3.461,3.461,0,0,0-.45,0c-.094,0-.174,0-.243,0C-11066.336-11240.083-11066.336-11240-11066.331-11239.425Zm15.332-4.749c-.608,0-.611-.006-.611-.6q0-7.05,0-14.1v-16.153c0-.608,0-.608.605-.608,1.027,0,2.052,0,3.079,0,.546,0,.549,0,.549.552v30.327c0,.583,0,.583-.586.583q-.759,0-1.52,0T-11051-11244.174Zm33.748-.048a9.651,9.651,0,0,1-4.524-1.236,6.148,6.148,0,0,1-3.028-4.339,8.2,8.2,0,0,1,.071-3.43,6.249,6.249,0,0,1,3.206-4.168,9.932,9.932,0,0,1,4.782-1.135c.705-.006,1.412-.006,2.117-.006.775,0,1.554,0,2.329,0,.364,0,.486.116.478.481-.022.911-.017,1.825,0,2.736.006.317-.113.419-.421.416-1.494-.009-2.991-.022-4.485.006a5.323,5.323,0,0,0-2.867.716,2.44,2.44,0,0,0-1,1.2,4.251,4.251,0,0,0,.04,3.217,2.412,2.412,0,0,0,1.734,1.412,10.507,10.507,0,0,0,5.773-.045c2.179-.668,2.773-1.545,2.835-3.724.082-2.873.04-5.751.012-8.626a3.466,3.466,0,0,0-1.279-2.881,4.708,4.708,0,0,0-2.323-.843,12.737,12.737,0,0,0-3.857.06,4.637,4.637,0,0,0-2.951,1.91c-.263.339-.518.685-.817,1.081l-1.919-1.692c-.274-.243-.538-.5-.82-.73a.29.29,0,0,1-.062-.453,9.482,9.482,0,0,1,2.979-2.92,8.239,8.239,0,0,1,2.887-.982,16.846,16.846,0,0,1,6.229.1,7.823,7.823,0,0,1,3.99,1.98,5.931,5.931,0,0,1,1.72,3.07,16.5,16.5,0,0,1,.329,2.93c.051,2.113.039,4.23.008,6.347a14.057,14.057,0,0,1-.422,3.948,7.2,7.2,0,0,1-2.957,4.14,8.755,8.755,0,0,1-1.861.838,13.715,13.715,0,0,1-4.516.667C-11016.314-11244.183-11016.782-11244.2-11017.251-11244.222Zm-46.937.031a13.057,13.057,0,0,1-3.229-.4,6.889,6.889,0,0,1-4.733-3.534,7.973,7.973,0,0,1-.835-3.436c-.028-1.406-.006-2.812-.006-4.219h0c0-1.152.006-2.307,0-3.458a11.7,11.7,0,0,1,.413-3.5,7.01,7.01,0,0,1,3.631-4.542,11.551,11.551,0,0,1,3.942-1.035,16.094,16.094,0,0,1,5.022.2,6.937,6.937,0,0,1,5.085,3.529,7.17,7.17,0,0,1,.733,3.868,6.9,6.9,0,0,1-1.05,3.365,6.97,6.97,0,0,1-3.923,2.813,11.836,11.836,0,0,1-3.324.5c-.827.014-1.65.011-2.477.011-.617,0-1.236,0-1.854,0-.334,0-.483-.085-.476-.449.021-.911.021-1.825,0-2.734-.008-.362.139-.455.473-.452,1.367.011,2.736.042,4.1-.012a10.809,10.809,0,0,0,2.352-.337,2.726,2.726,0,0,0,2.083-2.439,4.655,4.655,0,0,0-.176-2.136,2.562,2.562,0,0,0-1.992-1.692,11.5,11.5,0,0,0-5.377.009,6.322,6.322,0,0,0-1.567.656,2.932,2.932,0,0,0-1.478,2.665c-.07,2.214-.07,4.429-.082,6.645,0,.963,0,1.928.074,2.884a3.318,3.318,0,0,0,2.853,3.184,10.6,10.6,0,0,0,3.2.24,5.256,5.256,0,0,0,3.149-.939,21.634,21.634,0,0,0,1.511-1.581,2.433,2.433,0,0,0,.241-.34c.146-.238.294-.261.512-.062.69.631,1.4,1.239,2.092,1.868.563.512.58.537.152,1.135a8.16,8.16,0,0,1-4,3.118,13.494,13.494,0,0,1-4.52.611Zm26.47-.11a8.164,8.164,0,0,1-5.388-2.468,6.555,6.555,0,0,1-1.452-2.759,11.622,11.622,0,0,1-.354-3.124c.009-1.053,0-2.1,0-3.155h-.06c.065-1.786.074-3.571.21-5.352a7.838,7.838,0,0,1,1.989-4.663,6.728,6.728,0,0,1,3.2-1.947,15.776,15.776,0,0,1,6.537-.541,8.614,8.614,0,0,1,4.743,1.823,6.5,6.5,0,0,1,2.264,5.1,7.272,7.272,0,0,1-.835,3.656,6.127,6.127,0,0,1-2.524,2.5,9.064,9.064,0,0,1-4.205,1.135c-1.709.039-3.418.036-5.128.064-.334,0-.441-.124-.436-.449.015-.911.02-1.823,0-2.734-.009-.359.136-.452.47-.452,1.633,0,3.266,0,4.9-.043a4.79,4.79,0,0,0,2.284-.616,2.758,2.758,0,0,0,1.369-2.321,6.312,6.312,0,0,0-.042-1.287,2.642,2.642,0,0,0-2.437-2.417,11.321,11.321,0,0,0-5.086.085,3.4,3.4,0,0,0-2.668,1.916,7.342,7.342,0,0,0-.413,2.335q-.072,3.913,0,7.83a6.441,6.441,0,0,0,.422,2.1,3.035,3.035,0,0,0,2.374,1.813,11.033,11.033,0,0,0,5.113-.011,4.633,4.633,0,0,0,2.532-1.831c.2-.258.4-.521.589-.79.139-.2.267-.234.462-.06q1.239,1.118,2.492,2.222a.3.3,0,0,1,.054.456,8.736,8.736,0,0,1-3.63,3.245,10.322,10.322,0,0,1-4.239.838h-.765A19.931,19.931,0,0,1-11037.719-11244.3Zm34.207-.2c-.486,0-.51-.022-.51-.521v-11.512c0-3.637-.008-7.272,0-10.906a10.7,10.7,0,0,1,.853-4.477,5.908,5.908,0,0,1,3.409-3.169,9.263,9.263,0,0,1,3.085-.541c.605-.02,1.214-.017,1.822-.014.444,0,.886,0,1.33,0,.322,0,.453.087.447.43q-.031,1.557,0,3.118c.006.346-.128.422-.444.425-1.127.009-2.259-.017-3.376.085a2.648,2.648,0,0,0-2.651,2.493,10,10,0,0,0-.159,1.615c-.014,2.827,0,5.651-.014,8.476,0,.356.088.484.464.479.705-.015,1.412-.012,2.119-.012.471,0,.942,0,1.415,0,.314,0,.453.082.444.428-.022.925-.02,1.851,0,2.775.006.323-.079.444-.421.439-.572-.012-1.144-.009-1.713-.009-.608,0-1.214,0-1.819-.009-.382-.006-.492.11-.489.5.014,3.116.009,6.231.009,9.348,0,.563,0,.563-.575.563-.537,0-1.076,0-1.614,0S-11002.974-11244.5-11003.512-11244.5Zm19.865-.167a.777.777,0,0,1-.444-.224c.3-.076.6-.158.9-.226a15.075,15.075,0,0,0,7.72-4.276,19.337,19.337,0,0,0,3.333-4.861,28.06,28.06,0,0,0,1.771-4.514c.3-1.016.586-2.035.88-3.051l-.09-.034a1.743,1.743,0,0,0-.145.3,28.252,28.252,0,0,1-2.42,6,18.65,18.65,0,0,1-6.466,7.2,13.88,13.88,0,0,1-4.94,1.95,7.349,7.349,0,0,1-2.666.164,5.188,5.188,0,0,1-2.966-1.624,7.113,7.113,0,0,1-1.718-4.05,9.345,9.345,0,0,1,.362-3.673,11.15,11.15,0,0,1,2.487-4.557,14.789,14.789,0,0,1,4.387-3.327,23.529,23.529,0,0,1,4.742-1.786,31.333,31.333,0,0,1,4.842-.866c.153-.014.312,0,.467,0,.018.033.034.064.049.1a9.893,9.893,0,0,0-3.507,4.885,45.69,45.69,0,0,1,7.76-2.275,12.89,12.89,0,0,1,.088,1.8c-.128,1.432-.32,2.855-.5,4.284a19.55,19.55,0,0,1-1.1,4.214,13.89,13.89,0,0,1-4.272,6.421,9.8,9.8,0,0,1-4.154,1.921,11.689,11.689,0,0,1-2.4.237A17.059,17.059,0,0,1-10983.646-11244.672Z" transform="translate(11534 14045.645)" fill="#ffffff"></path></g></svg> 