<?xml version="1.0" encoding="UTF-8"?> <svg xmlns="http://www.w3.org/2000/svg" width="179" height="84" viewBox="0 0 179 84"><g id="orange-logo" transform="translate(-72 -2693)"><path id="logo" d="M-8494.037-9076.881l4.487-.725c.189.848.71,1.693,3.255,1.693,2.358,0,3.493-1.129,3.493-3.832v-2.013l-.059-.059a4.537,4.537,0,0,1-4.462,2.52c-4.037,0-7.208-2.8-7.208-8.645,0-5.783,3.273-9.024,6.947-9.029,3.314-.007,4.622,1.444,4.989,2.29l.361-1.975h3.838v16.383c0,2.881-.229,7.653-8.46,7.694h-.092C-8490.312-9072.576-8493.419-9073.94-8494.037-9076.881Zm4.037-11.766c0,2.127.148,5.67,3.488,5.636,3.452-.022,3.747-3.539,3.747-5.826,0-2.711-1.32-4.9-3.774-4.9C-8488.173-9093.739-8490-9092.544-8490-9088.646Zm-73.214.73c0-6.26,4.057-9.124,8.558-9.124s8.554,2.864,8.554,9.124-4.051,9.127-8.554,9.127S-8563.214-9081.653-8563.214-9087.916Zm4.537,0c0,2.209.621,5.282,4.021,5.282s4.023-3.073,4.023-5.282-.622-5.279-4.023-5.279S-8558.677-9090.127-8558.677-9087.911Zm83.026-.034c0-5.755,3.075-9.026,8.063-9.026s7.955,3.176,7.955,8.8c0,.3-.035.6-.035.894h-11.514c.029,3.28,1.391,4.935,4.073,4.935a4.428,4.428,0,0,0,3.925-2.211l3.331,1.846c-1.467,2.446-4.107,3.73-7.66,3.73C-8472.612-9078.979-8475.65-9082.257-8475.65-9087.945Zm4.544-2.287h7.007c0-2.31-1.327-3.674-3.486-3.674C-8469.64-9093.906-8470.926-9092.574-8471.106-9090.232Zm-60.948,6.123c0-3.875,3.557-5.92,10.891-6.742v-.966c0-1.257-.95-1.99-2.712-1.99a5.177,5.177,0,0,0-4.22,1.99l-3.072-1.75q2.418-3.382,7.363-3.384c4.512,0,7.043,1.955,7.043,5.134,0,0-.007,12.5,0,12.533h-4.037l-.4-1.513a10.2,10.2,0,0,1-5.716,1.718A4.8,4.8,0,0,1-8532.055-9084.109Zm4.476-.331a2.085,2.085,0,0,0,2.054,2.25,6.334,6.334,0,0,0,4.218-1.821v-4.1C-8525.562-9087.582-8527.579-9086.485-8527.579-9084.44Zm-15.4,5.149v-17.295h4.332v2.031a6.711,6.711,0,0,1,4.764-2.39,4.6,4.6,0,0,1,.589.025v4.274h-.224c-1.979,0-4.145.308-4.844,1.846v11.508Zm40.775-.017v-11.247c0-2.115-.546-3.07-2.192-3.07a6.708,6.708,0,0,0-4.266,1.917v12.4h-4.5v-16.816l3.77-.519.416,2.051c2.122-1.553,3.811-2.38,5.936-2.38,3.557,0,5.4,1.887,5.4,5.627v12.037Zm50.867-18.119v-4.772h-.027l-1.864,4.772h-.6l-1.876-4.772h-.022v4.772h-.948v-5.721h1.458l1.708,4.337,1.675-4.337h1.441v5.721Zm-9.237,0v-4.956h-1.786v-.761h4.528v.761h-1.794v4.956Z" transform="translate(8668.215 11823.146)" fill="#067b02"></path><path id="frame" d="M0,0H179V84H0Z" transform="translate(72 2693)" fill="none"></path></g></svg> 