<?xml version="1.0" encoding="UTF-8"?> <svg xmlns="http://www.w3.org/2000/svg" width="179" height="84" viewBox="0 0 179 84"><g id="sanlam-allianz" transform="translate(-940 -2951)"><path id="frame" d="M0,0H179V84H0Z" transform="translate(940 2951)" fill="none"></path><path id="logo" d="M-11417.857-11489.826a8.954,8.954,0,0,1,9.175-9.175,8.952,8.952,0,0,1,9.172,9.175,8.948,8.948,0,0,1-9.172,9.175A8.949,8.949,0,0,1-11417.857-11489.826Zm1.468,0a7.457,7.457,0,0,0,7.707,7.7,7.457,7.457,0,0,0,7.7-7.7,7.469,7.469,0,0,0-7.7-7.707A7.46,7.46,0,0,0-11416.39-11489.826Zm-61.7,9.172V-11499h.766v18.347Zm-72.415-1.468v-3.077a9.243,9.243,0,0,1,.063-1.462,1.53,1.53,0,0,1,.517-.848,9.429,9.429,0,0,0,1.83-1.827,3.582,3.582,0,0,0,.705-2.039,2.914,2.914,0,0,0-.563-1.758c-.458-.731-.939-1.465-1.334-2.111v0c-.188-.311-.377-.642-.574-1.013-.421-.771-1.056-1.686-.281-2.741,0,0,.209.351,6.12,8.3l.018.023a.791.791,0,0,1,.128.449v.015a1,1,0,0,1-.169.571l.006,0-2.225,3.614a4.268,4.268,0,0,0-.278,1.686c-.006.258-.006.858,0,1.212h0c0,.633-.536,1-1.224,1.01Zm-3.595,0c-.687-.006-1.224-.377-1.227-1.01,0-.354,0-.954,0-1.212a4.321,4.321,0,0,0-.278-1.686l-2.225-3.614h0a1.013,1.013,0,0,1-.169-.574v-.015a.792.792,0,0,1,.131-.449l.018-.023c5.908-7.945,6.12-8.3,6.12-8.3.774,1.056.14,1.97-.281,2.741-.2.371-.386.7-.574,1.013l0,0c-.4.646-.879,1.38-1.335,2.111a2.909,2.909,0,0,0-.565,1.758,3.561,3.561,0,0,0,.705,2.039,9.4,9.4,0,0,0,1.83,1.827,1.535,1.535,0,0,1,.517.848,9.243,9.243,0,0,1,.063,1.462v3.077Zm18.295-2.5a4.543,4.543,0,0,1-1.555-.72,3.474,3.474,0,0,1-1.035-1.207,3.868,3.868,0,0,1-.4-1.711h2.456a1.84,1.84,0,0,0,.818,1.506,3.191,3.191,0,0,0,1.7.432,6.34,6.34,0,0,0,.786-.055,3.346,3.346,0,0,0,.829-.2,1.549,1.549,0,0,0,.636-.441,1.058,1.058,0,0,0,.226-.763,1.09,1.09,0,0,0-.345-.777,2.437,2.437,0,0,0-.827-.484,7.782,7.782,0,0,0-1.154-.311c-.429-.087-.867-.18-1.313-.281a11.728,11.728,0,0,1-1.323-.365,4.232,4.232,0,0,1-1.14-.58,2.659,2.659,0,0,1-.81-.937,3,3,0,0,1-.3-1.409,2.538,2.538,0,0,1,.441-1.518,3.4,3.4,0,0,1,1.122-.991,4.838,4.838,0,0,1,1.506-.525,8.73,8.73,0,0,1,1.581-.151,7.25,7.25,0,0,1,1.647.184,4.5,4.5,0,0,1,1.421.589,3.485,3.485,0,0,1,1.056,1.067,3.7,3.7,0,0,1,.525,1.58h-2.562a1.516,1.516,0,0,0-.807-1.183,3.358,3.358,0,0,0-1.453-.3,5.109,5.109,0,0,0-.614.043,2.749,2.749,0,0,0-.668.16,1.443,1.443,0,0,0-.527.345.825.825,0,0,0-.215.592.93.93,0,0,0,.313.73,2.429,2.429,0,0,0,.82.465,7.975,7.975,0,0,0,1.155.311c.432.087.876.18,1.337.281s.888.223,1.319.365a4.336,4.336,0,0,1,1.155.583,2.836,2.836,0,0,1,.82.925,2.783,2.783,0,0,1,.313,1.378,2.968,2.968,0,0,1-.455,1.677,3.6,3.6,0,0,1-1.175,1.123,5.315,5.315,0,0,1-1.607.623,8.034,8.034,0,0,1-1.746.194A7.547,7.547,0,0,1-11535.808-11484.622Zm31.806,0a2.763,2.763,0,0,1-1-.5,2.262,2.262,0,0,1-.664-.853,2.88,2.88,0,0,1-.24-1.225,2.68,2.68,0,0,1,.275-1.285,2.293,2.293,0,0,1,.711-.807,3.089,3.089,0,0,1,.991-.452,9.963,9.963,0,0,1,1.129-.24c.377-.062.751-.107,1.116-.143a6.51,6.51,0,0,0,.975-.159,1.7,1.7,0,0,0,.677-.311.68.68,0,0,0,.229-.595,1.317,1.317,0,0,0-.133-.646.95.95,0,0,0-.354-.372,1.371,1.371,0,0,0-.514-.18,4.76,4.76,0,0,0-.632-.043,1.93,1.93,0,0,0-1.172.318,1.43,1.43,0,0,0-.5,1.067h-2.521a2.926,2.926,0,0,1,.446-1.473,3,3,0,0,1,.992-.943,4.354,4.354,0,0,1,1.357-.5,7.893,7.893,0,0,1,1.518-.15,10.591,10.591,0,0,1,1.4.1,4.332,4.332,0,0,1,1.294.383,2.574,2.574,0,0,1,.96.789,2.224,2.224,0,0,1,.371,1.34v4.774a9.132,9.132,0,0,0,.073,1.189,2.173,2.173,0,0,0,.246.853h-2.553a3.483,3.483,0,0,1-.116-.437,3.475,3.475,0,0,1-.063-.452,3.258,3.258,0,0,1-1.418.87,5.724,5.724,0,0,1-1.668.249A4.458,4.458,0,0,1-11504-11484.619Zm3.806-4.337a4,4,0,0,1-.516.134c-.181.034-.375.063-.575.087s-.4.055-.6.09a4.282,4.282,0,0,0-.561.142,1.7,1.7,0,0,0-.479.238,1.138,1.138,0,0,0-.327.383,1.2,1.2,0,0,0-.125.586,1.165,1.165,0,0,0,.125.568.928.928,0,0,0,.336.363,1.459,1.459,0,0,0,.5.186,3.319,3.319,0,0,0,.586.055,2.232,2.232,0,0,0,1.154-.249,1.663,1.663,0,0,0,.6-.595,1.873,1.873,0,0,0,.238-.7,5.215,5.215,0,0,0,.046-.568v-.943A1.149,1.149,0,0,1-11500.2-11488.956Zm-26.251,4.337a2.755,2.755,0,0,1-1-.5,2.289,2.289,0,0,1-.667-.853,2.881,2.881,0,0,1-.237-1.225,2.681,2.681,0,0,1,.272-1.285,2.291,2.291,0,0,1,.71-.807,3.12,3.12,0,0,1,1-.452,9.913,9.913,0,0,1,1.126-.24c.377-.062.751-.107,1.116-.143a6.553,6.553,0,0,0,.978-.159,1.684,1.684,0,0,0,.673-.311.679.679,0,0,0,.232-.595,1.339,1.339,0,0,0-.134-.646.969.969,0,0,0-.356-.372,1.371,1.371,0,0,0-.514-.18,4.692,4.692,0,0,0-.629-.043,1.924,1.924,0,0,0-1.172.318,1.427,1.427,0,0,0-.5,1.067h-2.521a2.925,2.925,0,0,1,.443-1.473,3.033,3.033,0,0,1,1-.943,4.354,4.354,0,0,1,1.357-.5,7.87,7.87,0,0,1,1.518-.15,10.514,10.514,0,0,1,1.4.1,4.376,4.376,0,0,1,1.3.383,2.588,2.588,0,0,1,.957.789,2.225,2.225,0,0,1,.374,1.34v4.774a9.143,9.143,0,0,0,.07,1.189,2.12,2.12,0,0,0,.249.853h-2.556a3.033,3.033,0,0,1-.113-.437,3.475,3.475,0,0,1-.063-.452,3.267,3.267,0,0,1-1.421.87,5.689,5.689,0,0,1-1.665.249A4.458,4.458,0,0,1-11526.447-11484.619Zm3.806-4.337a4.19,4.19,0,0,1-.514.134c-.183.034-.377.063-.577.087s-.4.055-.6.09a4.153,4.153,0,0,0-.56.142,1.7,1.7,0,0,0-.479.238,1.119,1.119,0,0,0-.328.383,1.215,1.215,0,0,0-.124.586,1.176,1.176,0,0,0,.124.568.93.93,0,0,0,.337.363,1.459,1.459,0,0,0,.5.186,3.293,3.293,0,0,0,.586.055,2.22,2.22,0,0,0,1.151-.249,1.663,1.663,0,0,0,.6-.595,1.879,1.879,0,0,0,.241-.7,5.086,5.086,0,0,0,.043-.568v-.943A1.118,1.118,0,0,1-11522.642-11488.956Zm74.567,1.77a2.632,2.632,0,0,1,1.7-2.732,6.865,6.865,0,0,1,1.082-.348c.664-.146,1.029-.221,2.2-.406v-.2c0-.8-.275-1.079-1.05-1.079a6.9,6.9,0,0,0-2.825.719l-.638-1.766a7.438,7.438,0,0,1,1.946-.731,9.732,9.732,0,0,1,2.2-.261c2.332,0,3.139.812,3.139,3.139v4.371c0,.583.183.807.679.807h.128v.988h-2.622a.765.765,0,0,1-.862-.861v-.127a5.193,5.193,0,0,1-1.229.788,4.194,4.194,0,0,1-1.543.288C-11447.325-11484.6-11448.074-11485.443-11448.074-11487.187Zm3.392-1.465c-.517.2-.659.511-.659,1.189s.181.942.7.942a2.341,2.341,0,0,0,1.558-.792v-1.786A7.617,7.617,0,0,0-11444.683-11488.651Zm-37.613,3.962v0Zm-8.267,0v-5.146c0-.275-.006-.542-.018-.81a2.4,2.4,0,0,0-.151-.736,1.125,1.125,0,0,0-.446-.54,1.671,1.671,0,0,0-.914-.205,1.952,1.952,0,0,0-.47.081,1.6,1.6,0,0,0-.568.3,1.781,1.781,0,0,0-.47.638,2.582,2.582,0,0,0-.194,1.091v5.322h-2.519v-9.172h2.376v1.242h.035a3.59,3.59,0,0,1,1.2-1.1,3.27,3.27,0,0,1,1.606-.389,3.671,3.671,0,0,1,1.587.336,2.223,2.223,0,0,1,1.091,1.189,3.947,3.947,0,0,1,1.11-1.064,2.943,2.943,0,0,1,1.659-.461,4.978,4.978,0,0,1,1.349.177,2.738,2.738,0,0,1,1.065.568,2.628,2.628,0,0,1,.689,1.021,4.127,4.127,0,0,1,.25,1.517v6.138h-2.518v-5.2q0-.461-.035-.87a1.82,1.82,0,0,0-.2-.708,1.148,1.148,0,0,0-.47-.479,1.683,1.683,0,0,0-.841-.18,1.626,1.626,0,0,0-.862.205,1.46,1.46,0,0,0-.516.531,2.177,2.177,0,0,0-.247.745,5.477,5.477,0,0,0-.063.842v5.113Zm-18.594,0v-12.67h2.518v12.67Zm-3.483,0v-5.184a3.219,3.219,0,0,0-.354-1.693,1.376,1.376,0,0,0-1.262-.56,1.751,1.751,0,0,0-1.49.611,3.4,3.4,0,0,0-.462,2.014v4.812h-2.518v-9.172h2.394v1.276h.055a2.918,2.918,0,0,1,1.241-1.163,3.622,3.622,0,0,1,1.561-.362,4.233,4.233,0,0,1,1.659.275,2.465,2.465,0,0,1,1.021.76,3,3,0,0,1,.521,1.189,7.31,7.31,0,0,1,.151,1.552v5.645Zm106.448,0v-9.172h1.556c.771,0,1.076.284,1.076,1.076v8.1Zm-3.816,0v-9.316c0-.652-.1-.771-.647-.771h-.139v-1.132h2.369c.783,0,1.07.273,1.07,1.079v10.141Zm-3.8,0v-8.1c0-.795.3-1.076,1.076-1.076h1.561v9.172Zm-15.08,0v-1.891l3.852-5.413h-2.059c-.456,0-.674.2-.674.624v.165h-1.064v-1.668a.862.862,0,0,1,.992-.992h5.979v1.892l-3.817,5.357h4v1.926Zm-4.146,0h0v-5.812c0-.923-.142-1.163-.751-1.163a2.008,2.008,0,0,0-1.543.774v6.2h-2.86v-7.434c0-.477-.2-.7-.682-.7h-.165v-1.042h2.718a.774.774,0,0,1,.885.862v.365a3.959,3.959,0,0,1,2.968-1.338,2.238,2.238,0,0,1,1.729.642c.461.493.565.951.565,2.4v6.236Zm-19.223,0v-7.434c0-.477-.2-.7-.679-.7h-.165v-1.045h2.787a.855.855,0,0,1,.92.935v8.24Zm-4.986,0v-10.491c0-.481-.2-.685-.682-.685h-.18v-1.064h2.825a.853.853,0,0,1,.917.937v11.3Zm-4.9,0h0v-10.491c0-.481-.2-.685-.677-.685h-.183v-1.064h2.822a.851.851,0,0,1,.917.937v11.3Zm-4.072,0-.826-2.952h-3.487l-.879,2.952h-2.979l3.214-9.636a2.972,2.972,0,0,0,.243-.989c0-.365-.261-.551-.736-.551h-.386v-1.064h4.571a1.186,1.186,0,0,1,1.285.975l3.211,11.266Zm-3.852-4.957h2.587l-1.209-4.5Zm-83.705-1.767a2.815,2.815,0,0,1,2.831-2.8,2.814,2.814,0,0,1,2.828,2.8,2.815,2.815,0,0,1-2.828,2.8A2.815,2.815,0,0,1-11553.769-11491.413Zm101.123-4.4c0-.82.627-1.316,1.656-1.316s1.65.5,1.65,1.316-.608,1.323-1.65,1.323S-11452.646-11494.983-11452.646-11495.813Z" transform="translate(12508 14483)" fill="#067b02"></path></g></svg> 