<?xml version="1.0" encoding="UTF-8"?> <svg xmlns="http://www.w3.org/2000/svg" width="98" height="84" viewBox="0 0 98 84"><g id="fast-effective" transform="translate(-482 -743)"><g id="icon" transform="translate(498.998 749.228)"><path id="check" d="M-12456.95-9244.3a15.96,15.96,0,0,1,16.063-16.019,15.956,15.956,0,0,1,15.979,16.019,16.064,16.064,0,0,1-16.01,16.048A16.055,16.055,0,0,1-12456.95-9244.3Zm16.025-12.192a12.224,12.224,0,0,0-12.2,12.184,12.158,12.158,0,0,0,12.214,12.229,12.089,12.089,0,0,0,12.2-12.183,12.15,12.15,0,0,0-12.176-12.23Zm-3.727,17.92c-1.426-1.223-2.864-2.429-4.277-3.67a1.865,1.865,0,0,1-.209-2.636,1.87,1.87,0,0,1,2.72-.234c.844.69,1.679,1.4,2.485,2.135.322.291.5.27.784-.043,2.063-2.242,4.146-4.468,6.216-6.7a2.033,2.033,0,0,1,1.266-.731,1.858,1.858,0,0,1,1.936.95,1.871,1.871,0,0,1-.285,2.238c-.716.8-1.45,1.582-2.182,2.37q-2.837,3.048-5.684,6.1a2.052,2.052,0,0,1-1.517.722A2.047,2.047,0,0,1-12444.651-9238.57Z" transform="translate(12483.551 9296.311)" fill="#018369" stroke="rgba(0,0,0,0)" stroke-width="1"></path><path id="target" d="M-12456.95-9236.9a23.438,23.438,0,0,1,23.412-23.412,23.314,23.314,0,0,1,15.766,6.12c1.136-.838,2.187-1.184,2.586-.774s.034,1.448-.826,2.562a23.348,23.348,0,0,1,5.578,11.716,17.764,17.764,0,0,0-3.643-.381h-.059a19.8,19.8,0,0,0-4.371-8.772l-2.764,2.7a16.141,16.141,0,0,1,3.3,6.5,17.451,17.451,0,0,0-3.393,1.147,12.548,12.548,0,0,0-2.468-5.148l-7.076,6.912c-1.479,1.441-3.1,2.182-3.614,1.65s.26-2.132,1.735-3.573l7.063-6.9a12.536,12.536,0,0,0-7.938-2.824,12.614,12.614,0,0,0-12.6,12.6,12.614,12.614,0,0,0,12.6,12.6,12.39,12.39,0,0,0,2.329-.223c-.006.182-.012.363-.012.547a17.848,17.848,0,0,0,.262,3.03,16.412,16.412,0,0,1-2.579.209,16.18,16.18,0,0,1-16.162-16.163,16.18,16.18,0,0,1,16.162-16.163,16.081,16.081,0,0,1,10.5,3.888l2.767-2.7a19.758,19.758,0,0,0-13.144-4.99,19.868,19.868,0,0,0-19.849,19.846,19.871,19.871,0,0,0,19.849,19.85,19.827,19.827,0,0,0,3.445-.307,16.681,16.681,0,0,0,1.775,3.282,23.363,23.363,0,0,1-5.221.588A23.437,23.437,0,0,1-12456.95-9236.9Z" transform="translate(12456.952 9275.907)" fill="#373533" stroke="rgba(0,0,0,0)" stroke-width="1"></path><path id="grain1" d="M226.212,3.724a9.211,9.211,0,0,0-2.737,6.012,9.275,9.275,0,0,0,8.785-8.677,9.222,9.222,0,0,0-6.048,2.665" transform="translate(-168.163 -0.797)" fill="#c6d04d"></path><path id="grain2" d="M-12456.95-9246.283a8.647,8.647,0,0,1,4.7-3.985,8.278,8.278,0,0,1,6.063.2,8.638,8.638,0,0,1-4.7,3.986,8.286,8.286,0,0,1-2.782.481A8.248,8.248,0,0,1-12456.95-9246.283Zm1.5-9.325a8.786,8.786,0,0,1,4.1-4.708,8.378,8.378,0,0,1,.125,6.143,8.754,8.754,0,0,1-4.093,4.709A8.381,8.381,0,0,1-12455.453-9255.608Z" transform="translate(12506.315 9260.315)" fill="#adc96a" stroke="rgba(0,0,0,0)" stroke-width="1"></path><path id="grain3" d="M-12456.952-9245.7a9.31,9.31,0,0,1,5.058-4.289,8.907,8.907,0,0,1,6.528.212,9.322,9.322,0,0,1-5.059,4.29,8.933,8.933,0,0,1-2.994.517A8.9,8.9,0,0,1-12456.952-9245.7Zm.894-9.613a9.316,9.316,0,0,1,4.352-5,8.878,8.878,0,0,1,.135,6.527,9.317,9.317,0,0,1-4.352,5A8.887,8.887,0,0,1-12456.059-9255.313Z" transform="translate(12500.508 9265.907)" fill="#69b267" stroke="rgba(0,0,0,0)" stroke-width="1"></path></g><path id="frame" d="M0,0H98V84H0Z" transform="translate(482 743)" fill="none"></path></g></svg> 