<?xml version="1.0" encoding="UTF-8"?> <svg xmlns="http://www.w3.org/2000/svg" width="98" height="84" viewBox="0 0 98 84"><g id="safety" transform="translate(-943 -743)"><g id="icon" transform="translate(956 749)"><path id="shield" d="M81.494,0c1.1.454,2.264.736,3.4,1.088Q91.254,3.057,97.621,5A1.534,1.534,0,0,1,98.9,6.724c0,3.494.033,6.988-.009,10.481a26.587,26.587,0,0,1-1.956,9.3A35.252,35.252,0,0,1,82.842,43.475c-.279.183-.564.357-.843.539a1.574,1.574,0,0,1-1.833,0,39.7,39.7,0,0,1-6.491-4.978A33.719,33.719,0,0,1,64.7,25a27.257,27.257,0,0,1-1.441-8.939c.043-3.1.009-6.2.01-9.3A1.554,1.554,0,0,1,64.59,4.983q7.818-2.4,15.636-4.8c.153-.047.331-.044.448-.183ZM95.918,13.089h.02c0-1.686-.011-3.371.009-5.057a.507.507,0,0,0-.442-.59Q88.463,5.3,81.434,3.131a1.129,1.129,0,0,0-.7,0Q73.7,5.3,66.663,7.443a.509.509,0,0,0-.439.592c.013,3.022,0,6.044.011,9.066a13.246,13.246,0,0,0,.07,1.407,28.182,28.182,0,0,0,3.17,10.177A33.12,33.12,0,0,0,80.805,40.9a.4.4,0,0,0,.521.026A32.567,32.567,0,0,0,93.709,26.552a24.992,24.992,0,0,0,2.2-9.046c.053-1.471.009-2.945.009-4.417" transform="translate(-44.676 -0.001)" fill="#363533"></path><path id="hands" d="M-12895.8-9227.8a1.467,1.467,0,0,1-.285-1.283,18.246,18.246,0,0,0,.314-4.213,2.458,2.458,0,0,0-.791-1.812,22.447,22.447,0,0,0-3.672-2.6,43.759,43.759,0,0,1-5.718-3.876,8.964,8.964,0,0,1-2.622-3.711c-1.131-3.023-2.608-5.9-3.83-8.887a14.735,14.735,0,0,1-1.066-3.037,4.28,4.28,0,0,1,4.712-5.114,5.437,5.437,0,0,1,4.4,2.93c1.665,2.939,3.3,5.9,4.945,8.849a1.088,1.088,0,0,0,.59.521c.648.253,1.287.531,1.929.8a.943.943,0,0,0,.1.033c-.006-.033-.013-.068-.022-.1-.3-.9-.593-1.812-.9-2.712a4.5,4.5,0,0,1,2.146-5.666,4.763,4.763,0,0,1,5.341.953,7.161,7.161,0,0,1,1.475,1.954c.552,1.079,1.1,2.159,1.627,3.251a4.593,4.593,0,0,0,1.543,1.7,14.759,14.759,0,0,1,2.72,2.405,10.154,10.154,0,0,1,2.1,9.668,29.162,29.162,0,0,0-1.108,6.122c-.017.379-.023.758-.036,1.134a1.442,1.442,0,0,1-1.354,1.4,1.4,1.4,0,0,1-1.562-1.2,14.455,14.455,0,0,1,.137-3.086,47.745,47.745,0,0,1,1.163-5.652c.765-3.2-.492-5.62-2.836-7.642-.622-.535-1.322-.97-1.932-1.521a7.007,7.007,0,0,1-1.588-2.2c-.486-1.012-1-2.01-1.514-3a3.762,3.762,0,0,0-1.15-1.39,1.6,1.6,0,0,0-1.948-.085,1.585,1.585,0,0,0-.428,1.86q1.367,4.025,2.748,8.041a1.553,1.553,0,0,1-.262,1.734,1.459,1.459,0,0,1-2.415-.432,13.232,13.232,0,0,1-.46-1.328.75.75,0,0,0-.464-.506c-1.575-.664-3.141-1.358-4.722-2.01a2.284,2.284,0,0,1-1.2-1.057q-2.591-4.642-5.2-9.282a2.763,2.763,0,0,0-1.673-1.441,1.589,1.589,0,0,0-1.688.369,1.427,1.427,0,0,0-.187,1.581c.742,2.088,1.669,4.1,2.58,6.113.745,1.64,1.478,3.286,2.1,4.978a6.634,6.634,0,0,0,2.369,2.93,61.659,61.659,0,0,0,5.3,3.442,23.928,23.928,0,0,1,3.394,2.443,5.216,5.216,0,0,1,1.87,3.705,19.925,19.925,0,0,1-.38,5.338,1.352,1.352,0,0,1-1.082,1.1,1.673,1.673,0,0,1-.395.05A1.413,1.413,0,0,1-12895.8-9227.8Zm34.821-.628a18.619,18.619,0,0,1-.334-5.705,5.077,5.077,0,0,1,1.789-3.272,29.245,29.245,0,0,1,4.476-3.111,33.214,33.214,0,0,0,5.156-3.565,4.712,4.712,0,0,0,1.307-1.786c1.2-3.146,2.689-6.167,3.992-9.266.3-.727.594-1.459.859-2.2a1.431,1.431,0,0,0-.211-1.617,1.609,1.609,0,0,0-1.7-.333,2.76,2.76,0,0,0-1.634,1.426c-1.7,3.043-3.416,6.076-5.1,9.13a2.764,2.764,0,0,1-1.456,1.286c-1.529.619-3.036,1.3-4.557,1.936a.733.733,0,0,0-.467.5c-.106.363-.239.716-.362,1.076a1.489,1.489,0,0,1-1.9,1.076,1.489,1.489,0,0,1-.911-2.029q1.375-4.04,2.765-8.08a1.575,1.575,0,0,0-.44-1.932,1.64,1.64,0,0,0-2.02.182,3.135,3.135,0,0,0-.781.882c-.253.415-.5.836-.716,1.268-.38.742-.752,1.487-1.1,2.246a7.22,7.22,0,0,1-2.464,2.864,10.535,10.535,0,0,0-3.069,3.125,6.715,6.715,0,0,0-.816,5.152c.379,1.686.833,3.354,1.1,5.066a24.11,24.11,0,0,1,.275,3.445,1.469,1.469,0,0,1-1.511,1.581,1.465,1.465,0,0,1-1.448-1.588,28.079,28.079,0,0,0-1.044-6.68,12.05,12.05,0,0,1-.453-4.816,10.927,10.927,0,0,1,3.944-6.715c.684-.58,1.461-1.037,2.1-1.676a3.73,3.73,0,0,0,.693-1.008c.561-1.125,1.1-2.259,1.7-3.364a5.752,5.752,0,0,1,3.666-3.06,4.4,4.4,0,0,1,5.383,5.315c-.22.946-.609,1.838-.9,2.761-.065.2-.123.409-.182.613-.01.032-.017.067-.026.1a.932.932,0,0,0,.1-.033c.71-.295,1.42-.6,2.136-.888.211-.084.282-.266.376-.431q2.476-4.424,4.946-8.852a5.365,5.365,0,0,1,6.109-2.745,4.022,4.022,0,0,1,3.007,3.3c.01.039.049.071.071.1v1.459c-1.27,4.041-3.4,7.726-4.835,11.693a11.084,11.084,0,0,1-4.4,5.289c-1.941,1.357-4.025,2.489-5.992,3.8a15.584,15.584,0,0,0-1.779,1.413,2.328,2.328,0,0,0-.769,1.73,18.363,18.363,0,0,0,.309,4.259,1.473,1.473,0,0,1-1.1,1.809,1.732,1.732,0,0,1-.355.037A1.411,1.411,0,0,1-12860.979-9228.424Z" transform="translate(12913.545 9299.933)" fill="#028369" stroke="rgba(0,0,0,0)" stroke-width="1"></path><path id="grain" d="M314.738,192.175a6.75,6.75,0,0,0,1.75,4.513,6.8,6.8,0,0,0-.05-9.048A6.758,6.758,0,0,0,314.738,192.175Z" transform="translate(-279.34 -177.944)" fill="#c7d340"></path><path id="grains2" d="M-12908.48-9256.732a6.055,6.055,0,0,1,3.209-3.076,6.334,6.334,0,0,1-.318,4.5,6.072,6.072,0,0,1-3.208,3.079A6.343,6.343,0,0,1-12908.48-9256.732Zm-4.44-1.057a6.424,6.424,0,0,1-.369-4.557,6.138,6.138,0,0,1,3.283,3.079,6.4,6.4,0,0,1,.373,4.557A6.149,6.149,0,0,1-12912.921-9257.789Z" transform="translate(12945.571 9276.698)" fill="#adcb64"></path><path id="grains1" d="M-12907.959-9256.96a6.535,6.535,0,0,1,3.455-3.312,6.818,6.818,0,0,1-.344,4.849,6.541,6.541,0,0,1-3.452,3.312A6.831,6.831,0,0,1-12907.959-9256.96Zm-4.92-.542a6.824,6.824,0,0,1-.4-4.845,6.519,6.519,0,0,1,3.49,3.273,6.815,6.815,0,0,1,.4,4.842A6.517,6.517,0,0,1-12912.879-9257.5Z" transform="translate(12945.334 9282.788)" fill="#66b464"></path></g><path id="frame" d="M0,0H98V84H0Z" transform="translate(943 743)" fill="none"></path></g></svg> 