<?xml version="1.0" encoding="UTF-8"?> <svg xmlns="http://www.w3.org/2000/svg" width="98" height="84" viewBox="0 0 98 84"><g id="universal-accessibility" transform="translate(-713 -743)"><g id="icon" transform="translate(739 749)"><path id="phone" d="M45.944,13.026c-.517.03-1.038-.008-1.555.013-.256.011-.3-.081-.3-.315,0-1.3.035-2.6-.021-3.9A9.261,9.261,0,0,0,36.79.231,7.422,7.422,0,0,0,35.6.056c-.047,0-.1.006-.117-.057H8.46a3.725,3.725,0,0,1-.872.157A9.251,9.251,0,0,0,.1,8.078a1.194,1.194,0,0,1-.1.558v55.17l.053-.024A9.131,9.131,0,0,0,8.012,72.57a12.1,12.1,0,0,0,1.725.117h24.75c.1,0,.2,0,.293,0a9.415,9.415,0,0,0,4.261-1.034,9.21,9.21,0,0,0,4.91-6.772,10.681,10.681,0,0,0,.142-1.869q0-14.2-.007-28.395c0-.293.054-.408.373-.386.458.031.92-.011,1.379.013A1.1,1.1,0,0,0,47,33.665V13.63a.988.988,0,0,0-1.056-.6m-4.6,50.192a6.581,6.581,0,0,1-3.1,5.73,6.219,6.219,0,0,1-3.04.964c-.38.03-.762.031-1.144.031q-12,0-24,0a8.074,8.074,0,0,1-3.679-.708,6.25,6.25,0,0,1-3.509-4.859,20.857,20.857,0,0,1-.11-3.37c-.016-3.946-.006-7.892-.006-11.838q0-6.491,0-12.983h-.01q0-9.694,0-19.387c0-2.565-.024-5.131.028-7.7A6.46,6.46,0,0,1,8.131,2.855a5.71,5.71,0,0,1,1.051-.1l22.47-.008c1.077,0,2.154,0,3.23.009a6.543,6.543,0,0,1,6.362,5.478,17.91,17.91,0,0,1,.106,2.665c0,.627-.005,1.254,0,1.88,0,.185-.038.254-.24.253q-2.261-.012-4.523,0c-.184,0-.23-.051-.228-.23.01-.764,0-1.527,0-2.291a2.677,2.677,0,0,0-2.788-2.79q-9.561,0-19.122,0-1.954,0-3.906,0a2.664,2.664,0,0,0-2.805,2.8V36.37a2.641,2.641,0,0,0,2.762,2.769H33.652a2.654,2.654,0,0,0,2.714-2.707c0-.646.009-1.292,0-1.938,0-.209.056-.257.259-.256q2.217.013,4.435,0c.25,0,.3.074.3.311q-.011,8.754-.005,17.507c0,3.721.011,7.441,0,11.162M45.007,32.6q-14.773-.011-29.545,0c-.307,0-.379-.077-.379-.382q.015-8.591,0-17.182c0-.281.047-.371.356-.37q7.4.018,14.8.009t14.8-.007c.258,0,.318.06.317.318q-.012,8.635,0,17.27c0,.293-.082.344-.356.343" transform="translate(0 0.001)" fill="#373533"></path><path id="money" d="M68.3,51.7q7.4,0,14.8-.007c.258,0,.318.06.318.318q-.013,8.635,0,17.27c0,.293-.082.343-.356.343q-14.773-.011-29.545,0c-.307,0-.38-.077-.379-.382q.015-8.591,0-17.182c0-.281.047-.371.356-.37q7.4.018,14.8.009m-.016,4.5A4.451,4.451,0,1,0,72.726,60.7a4.463,4.463,0,0,0-4.437-4.492m8.658,11.353a1.449,1.449,0,0,0,.053.506.828.828,0,0,0,1.591-.371,3.007,3.007,0,0,1,1.774-2.725,3.2,3.2,0,0,1,1.306-.29.818.818,0,1,0-.036-1.635,4.7,4.7,0,0,0-4.688,4.515m-17.218.047c-.008-.081-.02-.2-.03-.314a4.686,4.686,0,0,0-4.629-4.247.821.821,0,1,0-.024,1.638,3.083,3.083,0,0,1,3.043,3.031.8.8,0,0,0,.836.857.847.847,0,0,0,.8-.965m17.222-13.7a4.717,4.717,0,0,0,4.61,4.311.824.824,0,1,0,.041-1.641,2.918,2.918,0,0,1-1.193-.271,3.01,3.01,0,0,1-1.817-2.758.829.829,0,0,0-1.017-.842c-.429.093-.635.417-.623,1.2m-17.223-.252c0-.029,0-.059,0-.088a.824.824,0,1,0-1.644-.008,3.281,3.281,0,0,1-.077.61,3.074,3.074,0,0,1-2.95,2.409.817.817,0,0,0-.818.545.844.844,0,0,0,.938,1.1,4.725,4.725,0,0,0,4.551-4.565" transform="translate(-38.063 -37.023)" fill="#fdfefd"></path><path id="buttons2" d="M-12691.931-9245.286c-.342-.006-.683,0-1.023,0-.528.007-1.058.013-1.587-.013a1.5,1.5,0,0,1-1.446-1.115,1.632,1.632,0,0,1,.653-1.807,1.313,1.313,0,0,1,.694-.2q1.291,0,2.581,0c.813,0,1.625,0,2.438,0a1.47,1.47,0,0,1,1.523,1.457,1.539,1.539,0,0,1-1.456,1.663c-.386.026-.772.034-1.16.034C-12691.119-9245.271-12691.525-9245.279-12691.931-9245.286Zm18.041-.019a1.491,1.491,0,0,1-1.491-1.556,1.508,1.508,0,0,1,1.479-1.573c.79-.038,1.583-.048,2.721-.035.194.006.439,0,.711,0a13.57,13.57,0,0,1,1.583.034,1.573,1.573,0,0,1,1.469,1.635,1.557,1.557,0,0,1-1.577,1.5c-.749.021-1.5.028-2.247.028C-12672.125-9245.276-12673.008-9245.288-12673.89-9245.3Zm-7.871,0c-.831.017-1.659.035-2.491,0a1.549,1.549,0,0,1-1.488-1.581,1.516,1.516,0,0,1,1.514-1.542c.439-.006.88-.022,1.319-.022q1.816.006,3.636.025a1.468,1.468,0,0,1,1.5,1.564,1.5,1.5,0,0,1-1.469,1.556c-.328.014-.655.019-.983.019C-12680.735-9245.286-12681.247-9245.3-12681.761-9245.309Zm-2.428-4.75a1.574,1.574,0,0,1-1.552-1.6,1.579,1.579,0,0,1,1.609-1.562c.8-.01,1.6,0,2.405,0s1.584-.01,2.377,0a1.538,1.538,0,0,1,1.581,1.581,1.529,1.529,0,0,1-1.521,1.577q-1.223.021-2.448.021T-12684.188-9250.059Zm-10.333,0a1.5,1.5,0,0,1-1.521-1.571,1.516,1.516,0,0,1,1.568-1.584c.8-.016,1.605-.006,2.408-.006s1.584-.01,2.378,0a1.55,1.55,0,0,1,1.59,1.481,1.542,1.542,0,0,1-1.521,1.673q-1.258.025-2.517.024Q-12693.327-9250.038-12694.521-9250.059Zm20.756.009a1.481,1.481,0,0,1-1.473-.921,1.583,1.583,0,0,1,.269-1.755,1.452,1.452,0,0,1,1.149-.488h2.438a23.62,23.62,0,0,1,2.55.02,1.54,1.54,0,0,1,1.414,1.5,1.6,1.6,0,0,1-1.357,1.628,2.21,2.21,0,0,1-.289.019l-2.351,0Zm3.263-4.725c-1.048,0-2.1.006-3.145-.01a1.6,1.6,0,0,1-1.708-1.912,1.516,1.516,0,0,1,1.574-1.294c.793-.013,1.586,0,2.377,0s1.567-.01,2.352,0a1.591,1.591,0,0,1,1.631,1.482,1.569,1.569,0,0,1-1.44,1.7,8.649,8.649,0,0,1-.942.042C-12670.037-9254.771-12670.271-9254.774-12670.5-9254.774Zm-11.241-.007v-.016c-.8,0-1.606.019-2.406-.007a1.582,1.582,0,0,1-1.59-1.618,1.579,1.579,0,0,1,1.642-1.568q2.366-.013,4.729,0a1.53,1.53,0,0,1,1.6,1.559,1.57,1.57,0,0,1-1.6,1.635c-.4.01-.8.013-1.2.016l-.393,0Zm-10.35,0v-.016c-.8,0-1.605.031-2.405-.007a1.578,1.578,0,0,1-1.476-2.105,1.494,1.494,0,0,1,1.481-1.077c1.615-.017,3.231-.02,4.844,0a1.527,1.527,0,0,1,1.552,1.548,1.575,1.575,0,0,1-1.529,1.642c-.09.006-.176.016-.265.016Z" transform="translate(12703.785 9308.649)" fill="#347a08" stroke="rgba(0,0,0,0)" stroke-width="1"></path><path id="buttons1" d="M-12692.083-9254.8v-.009c-.832,0-1.666.019-2.5-.007a1.4,1.4,0,0,1-1.354-.994,1.56,1.56,0,0,1,.359-1.736,1.434,1.434,0,0,1,1.032-.431c1.645-.013,3.289-.028,4.933,0a1.529,1.529,0,0,1,1.511,1.644,1.563,1.563,0,0,1-1.581,1.526c-.309.006-.617.008-.926.008C-12691.1-9254.8-12691.591-9254.8-12692.083-9254.8Zm18.331,0a1.557,1.557,0,0,1-1.628-1.567,1.539,1.539,0,0,1,1.605-1.618c1.564-.017,3.132-.02,4.7,0a1.584,1.584,0,0,1,1.656,1.641,1.608,1.608,0,0,1-1.7,1.545c-.773,0-1.548,0-2.319,0l-1.545,0C-12673.236-9254.8-12673.494-9254.8-12673.752-9254.8Z" transform="translate(12703.783 9302.283)" fill="#adcb64" stroke="rgba(0,0,0,0)" stroke-width="1"></path><path id="money1" d="M95.261,67.591a4.451,4.451,0,0,1-.022,8.9,4.451,4.451,0,0,1,.022-8.9" transform="translate(-65.035 -48.408)" fill="#018369"></path><path id="money2" d="M-12673.233-9242.618a1.475,1.475,0,0,1-.054-.506,4.7,4.7,0,0,1,4.69-4.516.824.824,0,0,1,.841.8.825.825,0,0,1-.807.838,3.165,3.165,0,0,0-1.306.29,3.009,3.009,0,0,0-1.775,2.725.837.837,0,0,1-.714.873.763.763,0,0,1-.115.009A.854.854,0,0,1-12673.233-9242.618Zm-18.911-.354a3.084,3.084,0,0,0-3.042-3.03.826.826,0,0,1-.86-.851.821.821,0,0,1,.882-.787,4.686,4.686,0,0,1,4.63,4.248c.01.117.022.232.029.315a.844.844,0,0,1-.8.962h-.02A.8.8,0,0,1-12692.145-9242.972Zm-3.852-10.588a.814.814,0,0,1,.818-.545,3.076,3.076,0,0,0,2.951-2.409,3.312,3.312,0,0,0,.076-.611.829.829,0,0,1,.822-.876.827.827,0,0,1,.822.886v.089a4.725,4.725,0,0,1-4.551,4.563h-.048A.836.836,0,0,1-12696-9253.56Zm27.322,1.1a4.6,4.6,0,0,1-2.753-.952,4.56,4.56,0,0,1-1.857-3.358c-.013-.784.194-1.109.624-1.2a.828.828,0,0,1,1.017.841,3.015,3.015,0,0,0,1.816,2.76,2.968,2.968,0,0,0,1.191.271.816.816,0,0,1,.877.822.817.817,0,0,1-.886.819Z" transform="translate(12712.171 9273.66)" fill="#67b664" stroke="rgba(0,0,0,0)" stroke-width="1"></path></g><path id="frame" d="M0,0H98V84H0Z" transform="translate(713 743)" fill="none"></path></g></svg> 