<?xml version="1.0" encoding="UTF-8"?> <svg xmlns="http://www.w3.org/2000/svg" width="98" height="84" viewBox="0 0 98 84"><g id="weather-risk" transform="translate(-253 -743)"><g id="icon" transform="translate(259 753)"><path id="risk" d="M-12219.478-9231.151a4.275,4.275,0,0,1,.623-2.638c5.014-8.7,10.062-17.373,15.039-26.089a4.534,4.534,0,0,1,7.948.056c4.919,8.63,9.915,17.216,14.886,25.818a4.444,4.444,0,0,1-2.787,6.826,5.171,5.171,0,0,1-1.095.077q-7.526.009-15.058,0c-4.978,0-9.958-.049-14.935.024h-.064A4.55,4.55,0,0,1-12219.478-9231.151Zm19.615.926h9.242c1.941,0,3.88.009,5.818-.006a1.288,1.288,0,0,0,1.2-2.024c-.119-.236-.257-.466-.389-.693q-3.318-5.754-6.64-11.5-3.974-6.891-7.952-13.782a1.351,1.351,0,0,0-2.533.007c-.095.156-.187.315-.279.475q-5.662,9.8-11.325,19.609c-1.11,1.926-2.229,3.849-3.327,5.78a1.367,1.367,0,0,0,.162,1.831,1.726,1.726,0,0,0,1.215.307Zm-.031-4.465a1.506,1.506,0,0,1-1.5-1.577,1.588,1.588,0,0,1,1.6-1.521,1.606,1.606,0,0,1,1.515,1.61,1.544,1.544,0,0,1-1.58,1.487Zm-.016-6.008a1.552,1.552,0,0,1-1.493-1.733c-.009-1.407,0-2.814,0-4.223,0-1.386-.006-2.772,0-4.158a1.587,1.587,0,0,1,1.543-1.7,1.591,1.591,0,0,1,1.576,1.681q.028,4.223,0,8.442a1.587,1.587,0,0,1-1.584,1.69Z" transform="translate(12244.147 9291.36)" fill="#347a08" stroke="rgba(0,0,0,0)" stroke-width="1"></path><path id="cloud" d="M87,38.816a2.248,2.248,0,0,0-.259.961A9.3,9.3,0,0,1,80.5,46.519a13.7,13.7,0,0,1-4.942.872c-3.243-.013-6.487,0-9.731-.005a1.6,1.6,0,0,1-1.77-1.267A1.521,1.521,0,0,1,65.683,44.3c3.389,0,6.777,0,10.165,0a10.117,10.117,0,0,0,4.4-1.025,6.226,6.226,0,0,0,3.654-6.608c-.265-3.36-2.156-5.355-5.677-6.218a17.242,17.242,0,0,0-4.911-.34c-.325.014-.651,0-1,0-.034-.259.165-.419.281-.6a16.254,16.254,0,0,0,2.342-4.857c.65-2.72.3-5.152-1.98-7.028a7.247,7.247,0,0,0-8.046-1.232,11.524,11.524,0,0,0-3.578,2.687c-.235.241-.486.467-.77.739-.3-1.209-.519-2.359-.866-3.471a20.676,20.676,0,0,0-5.632-9.253A15.1,15.1,0,0,0,42.283,3.124c-5.973.412-10.12,3.617-13,8.662-1.079,1.893-1.8,3.117-2.809,7.969-.336-.1-.514-.385-.726-.607a11.361,11.361,0,0,0-4.26-3.006c-3.586-1.313-8.095.639-9.337,4.08a8.038,8.038,0,0,0,.193,5.367,18.2,18.2,0,0,0,2.042,3.873c.12.194.233.392.36.607-1.06,0-2.066-.013-3.07,0A11.789,11.789,0,0,0,6.943,31.1c-2.95,1.337-4.037,3.732-3.844,6.763.232,3.646,2.682,5.414,5.807,6.167a10.415,10.415,0,0,0,2.476.276q5-.011,10,0a1.5,1.5,0,0,1,1.533,1.062,1.556,1.556,0,0,1-.553,1.7,1.746,1.746,0,0,1-1.073.322c-3.515,0-7.032.05-10.546-.016a12.36,12.36,0,0,1-6.189-1.783A8.956,8.956,0,0,1,.033,38.109,9.639,9.639,0,0,1,2.319,30.7a11.176,11.176,0,0,1,5.936-3.282c.436-.106.877-.193,1.316-.289-.124-.431-.253-.862-.371-1.295-.882-3.233-.763-6.347,1.411-9.068a10.5,10.5,0,0,1,13.554-2.776c.45.245.6.258.8-.271a22.738,22.738,0,0,1,6.942-9.8,18.3,18.3,0,0,1,13-3.872,17.838,17.838,0,0,1,12,5.5,23.768,23.768,0,0,1,5.153,8.213c.181.472.31.493.731.26a10.5,10.5,0,0,1,13.6,2.738c2.065,2.575,2.279,5.545,1.526,8.648a12.03,12.03,0,0,1-.426,1.4c-.107.284-.057.359.241.409a13.813,13.813,0,0,1,4.112,1.322A9.04,9.04,0,0,1,86.89,35.5c.015.1-.035.225.11.272Z" fill="#373533"></path></g><path id="frame" d="M0,0H98V84H0Z" transform="translate(253 743)" fill="none"></path></g></svg> 