<?xml version="1.0" encoding="UTF-8"?> <svg xmlns="http://www.w3.org/2000/svg" width="82" height="82" viewBox="0 0 82 82"><g id="oko-favicon6" transform="translate(-8800 -6439)"><circle id="Ellipse_30" data-name="Ellipse 30" cx="41" cy="41" r="41" transform="translate(8800 6439)" fill="#347a08"></circle><g id="Group_155" data-name="Group 155" transform="translate(-3.712 -1.574)"><path id="Path_150" data-name="Path 150" d="M475.4,165.5a14.628,14.628,0,0,1-4.937-.916c-.047-.017-.093-.035-.138-.055-.277-.122-.29-.144-.158-.409a10.934,10.934,0,0,1,.776-1.308,14.089,14.089,0,0,1,9.981-6.1,14.234,14.234,0,0,1,6.01.563c.272.084.539.183.8.287.289.113.313.169.173.439a12.488,12.488,0,0,1-.8,1.334,14.035,14.035,0,0,1-7.29,5.466,12.985,12.985,0,0,1-3.231.642c-.395.027-.788.066-1.185.059" transform="translate(8359.148 6332.648)" fill="#64b661"></path><path id="Path_151" data-name="Path 151" d="M478.719,63.684a14.027,14.027,0,0,1-3.388,9.167,13.421,13.421,0,0,1-3.442,2.91c-.053.031-.106.064-.161.092-.222.114-.254.11-.362-.129a13.592,13.592,0,0,1-.543-1.421,14.064,14.064,0,0,1,1.348-11.619,14.21,14.21,0,0,1,4.779-4.787c.042-.026.085-.051.129-.074.27-.139.318-.125.444.162a13.941,13.941,0,0,1,1.041,3.589,11.968,11.968,0,0,1,.157,2.109" transform="translate(8359.107 6416.203)" fill="#64b661"></path><path id="Path_152" data-name="Path 152" d="M597.7,1.7a14.157,14.157,0,0,1-.557,3.144,13.994,13.994,0,0,1-2.947,5.318,13.96,13.96,0,0,1-5.017,3.625,14.671,14.671,0,0,1-4.3,1.093c-.353.036-.42-.016-.421-.37a11.19,11.19,0,0,1,.262-2.246A14.087,14.087,0,0,1,596.341,1.147q.458-.075.919-.126c.37-.042.436.021.44.393,0,.074,0,.149,0,.29" transform="translate(8262.489 6464.146)" fill="#c7d42d"></path><path id="Path_153" data-name="Path 153" d="M541.188,5.288a13.3,13.3,0,0,1-2.161,7.581,13.056,13.056,0,0,1-4.308,4.119c-.3.178-.324.168-.459-.146a13.611,13.611,0,0,1-1.061-4.151A13.132,13.132,0,0,1,534.385,5.9,13.371,13.371,0,0,1,536.5,2.69,13.623,13.623,0,0,1,539.472.2l.063-.039c.4-.236.406-.233.582.183a12.665,12.665,0,0,1,1.071,4.947" transform="translate(8305.857 6465)" fill="#adcd5e"></path><path id="Path_154" data-name="Path 154" d="M531.392,104.785a12.8,12.8,0,0,1-4.339-.786c-.559-.2-.552-.228-.262-.752a13.152,13.152,0,0,1,2.847-3.5,12.709,12.709,0,0,1,3.933-2.35,13.032,13.032,0,0,1,9.368.015c.3.11.318.168.156.472a13.09,13.09,0,0,1-1.543,2.268,13.093,13.093,0,0,1-8.689,4.566c-.433.042-.864.056-1.47.065" transform="translate(8311.391 6383.412)" fill="#adcd5e"></path></g></g></svg> 