<?xml version="1.0" encoding="UTF-8"?> <svg xmlns="http://www.w3.org/2000/svg" viewBox="0 0 28.879 48.814"><g id="climate-resilience" transform="translate(-122 -1911.545)"><path id="ground" d="M13.111,64.248a38.328,38.328,0,0,1,1.4-7.766c.193-.614.5-1.083,1.227-1.027a1.043,1.043,0,0,1,.856,1.459c-1.543,4.593-1.209,9.359-1.29,14.081-.026,1.52,1.834,3.261,3.743,3.7,1.46.332,2.941.579,4.388.961,3.252.857,4.659,3.324,5.414,6.343.121.482-.113.476-.44.474-.654,0-1.307,0-1.961,0-8.529,0-17.058,0-25.586.026-.855,0-.993-.114-.758-1.006a7.834,7.834,0,0,1,7.233-6.28c1-.123,2-.333,2.984-.553a3.364,3.364,0,0,0,2.827-2.975,5.147,5.147,0,0,0-.435-3.494c-.743-1.34-1.387-2.734-2.078-4.1-.331-.656-.568-1.349.243-1.786s1.268.1,1.609.778c.2.4.417.781.627,1.171M14.4,80.386V80.38c3.3,0,6.6.01,9.9-.01.532,0,1.406.259,1.528-.157.176-.6-.523-1.112-1-1.545a6.964,6.964,0,0,0-3.888-1.445c-2.3-.334-4.49-.9-6.127-2.707-.335-.37-.463-.119-.648.127a5.272,5.272,0,0,1-3.172,1.982c-1.4.312-2.817.545-4.224.822a5.185,5.185,0,0,0-3.578,2.17c-.12.183-.293.439-.244.6.1.322.446.159.679.16,3.593.012,7.186.008,10.779.008" transform="translate(122 1877.86)" fill="#3c3a38"></path><path id="leaf1" d="M50.615,5.583A16.9,16.9,0,0,1,41.8,20.227c-1.4.811-1.413.795-1.816-.782A17.234,17.234,0,0,1,48.843.2c.809-.4,1.006-.217,1.2.586a24.045,24.045,0,0,1,.574,4.8" transform="translate(98.003 1911.545)" fill="#65b662"></path><path id="leaf2" d="M3.762,37.936c.153-2.473-.257-2.7,2.325-1.4A12.113,12.113,0,0,1,12.636,48.67c-.071.657-.168.973-.988.677A12.192,12.192,0,0,1,3.762,37.936" transform="translate(119.715 1889.824)" fill="#04846b"></path></g></svg> 