<?xml version="1.0" encoding="UTF-8"?> <svg xmlns="http://www.w3.org/2000/svg" viewBox="0 0 52.813 47.813"><g id="financial-inclusion" transform="translate(-522 -1693.902)"><path id="tool" d="M4.5,47.042v-33.2H3.45C1.786,13.841,0,12.648,0,9.3V1.812a1.1,1.1,0,0,1,2.206,0h0V9.3c0,1.547.42,2.333,1.249,2.333H4.5V1.812A1.1,1.1,0,0,1,5.6.709h0a1.1,1.1,0,0,1,1.1,1.1v9.819H7.87c.826,0,1.249-.786,1.249-2.333V1.812a1.1,1.1,0,0,1,1.1-1.1h0a1.105,1.105,0,0,1,1.1,1.1V9.3c0,3.346-1.786,4.543-3.454,4.543H6.709v33.2a1.106,1.106,0,0,1-2.211,0Z" transform="translate(522 1693.481)" fill="#373333"></path><path id="money" d="M-11113.038-10417.871c-.488,0-.646-.158-.646-.644v-12.168c0-.479.161-.637.651-.637h20.753c.469,0,.638.164.638.63v12.188c0,.463-.169.631-.641.631Zm20.131-.979c.2,0,.259-.048.259-.259q-.013-5.487,0-10.979c0-.2-.053-.247-.247-.244q-9.773.006-19.545,0c-.187,0-.234.041-.234.231q.01,5.5,0,11c0,.19.038.25.244.25q4.872-.01,9.75-.007T-11092.907-10418.851Zm-22.141-1.724a.276.276,0,0,1-.3-.276,1.824,1.824,0,0,1,0-.193c0-3.479.012-6.958-.01-10.437a1.409,1.409,0,0,1,1.457-1.448c3.116.021,6.228.01,9.339.01h9.383c.073,0,.146,0,.217,0a.259.259,0,0,1,.256.267.262.262,0,0,1-.244.3,1.377,1.377,0,0,1-.237.007h-18.636a1.071,1.071,0,0,0-.485.077.753.753,0,0,0-.437.75q0,5.234,0,10.461a1.747,1.747,0,0,1,0,.215.283.283,0,0,1-.3.27Zm-1.733-2.364a.264.264,0,0,1-.206-.247,1.837,1.837,0,0,1,0-.193c0-2.979.019-5.954-.01-8.933a2.082,2.082,0,0,1,2.113-2.1c2.77.017,5.54.007,8.309.007h8.395a1.582,1.582,0,0,1,.215,0,.27.27,0,0,1,.248.3.259.259,0,0,1-.257.27c-.08.006-.158,0-.237,0h-16.612a1.473,1.473,0,0,0-1.482.967,1.513,1.513,0,0,0-.072.531v9a.392.392,0,0,1-.083.32.3.3,0,0,1-.214.093A.346.346,0,0,1-11116.781-10422.938Z" transform="translate(11665.955 12150.208)" fill="#363533" stroke="rgba(0,0,0,0)" stroke-width="1"></path><path id="money1" d="M97.53,76.873a2.857,2.857,0,0,1-2.889-3.312,2.914,2.914,0,0,1,3.085-2.344,2.819,2.819,0,0,1,.7,5.529,3.149,3.149,0,0,1-.891.127" transform="translate(465.761 1651.569)" fill="#018369"></path><path id="money2" d="M-11101.525-10424.359a.5.5,0,0,1-.473-.555,2.973,2.973,0,0,1,1.9-2.685,2.978,2.978,0,0,1,1.029-.214c.058,0,.114,0,.172,0a.5.5,0,0,1,.485.481.48.48,0,0,1-.458.48,2.306,2.306,0,0,0-1.258.393,1.9,1.9,0,0,0-.839,1.458c0,.051-.01.1-.016.15a.5.5,0,0,1-.5.492Zm-12.9-.528a2.025,2.025,0,0,0-1.768-1.925c-.115-.013-.228-.022-.342-.034a.486.486,0,0,1-.46-.5.492.492,0,0,1,.5-.465c.061,0,.115,0,.175,0a3,3,0,0,1,2.9,2.917.485.485,0,0,1-.484.536h-.015A.493.493,0,0,1-11114.43-10424.888Zm15.389-6.066a3.03,3.03,0,0,1-2.957-2.919.486.486,0,0,1,.463-.538.471.471,0,0,1,.542.479,2.007,2.007,0,0,0,1.173,1.794,1.925,1.925,0,0,0,.876.2.5.5,0,0,1,.474.281.453.453,0,0,1-.038.49.5.5,0,0,1-.447.22A.612.612,0,0,1-11099.041-10430.954Zm-17.416,0a.513.513,0,0,1-.539-.5.509.509,0,0,1,.539-.5,1.983,1.983,0,0,0,1.115-.338,1.959,1.959,0,0,0,.912-1.579c.022-.357.2-.555.518-.551s.49.211.487.578v.064a2.988,2.988,0,0,1-2.52,2.767,3.088,3.088,0,0,1-.486.054Z" transform="translate(11671.032 12154.98)" fill="#66b662" stroke="rgba(0,0,0,0)" stroke-width="1"></path><path id="farmer" d="M38.475,32.707c-.034-1.442-.07-2.883-.083-4.325-.014-1.6-.007-3.195-.007-4.792a2.079,2.079,0,0,1,2.114-2.1c.874.005,1.747,0,2.621.006v-.127c.013-1.9.051-6.329-3.9-8.11-1.83-.824-3.092-1.424-3.923-1.831v-.865a5.779,5.779,0,0,0,2.5-4.569h.877a1.1,1.1,0,0,0,0-2.206H37.53A5.078,5.078,0,0,0,32.823,0a5.074,5.074,0,0,0-4.7,3.785H26.75a1.1,1.1,0,1,0,0,2.206h1.1a5.791,5.791,0,0,0,2.5,4.569v.628a13.385,13.385,0,0,0-4.211,2.457,5.311,5.311,0,0,0-1.293,3.663c-.021.29-.056.734-.106,1.014a1.616,1.616,0,0,1-1.166.234,2.889,2.889,0,0,1-1.461-1.143A2.488,2.488,0,0,0,19.9,16.2v5.993a6.8,6.8,0,0,0,2.519,1.2,6.05,6.05,0,0,0,1.4.159,6.923,6.923,0,0,0,3.282-.866V45.328a2.484,2.484,0,0,0,4.968,0V31.865l.752-1.249.758,1.249V45.324a2.481,2.481,0,1,0,4.962,0V37.422c0-1.571-.035-3.143-.072-4.715" transform="translate(510.168 1693.901)" fill="#118169"></path></g></svg> 