<?xml version="1.0" encoding="UTF-8"?> <svg xmlns="http://www.w3.org/2000/svg" viewBox="0 0 64.233 48.813"><g id="job-creation" transform="translate(-957.33 -1384.326)"><g id="person3" transform="translate(977.551 1384.326)"><path id="body" d="M-9595.23-7980.2a3.9,3.9,0,0,1-2.627,1.1,3.365,3.365,0,0,1-3.374-3.179l0-11.553a4.24,4.24,0,0,1-4.051-4.412v-8.193c0-3.836,3.373-6.15,6.007-7.13a6.821,6.821,0,0,1-1.3-4.018.975.975,0,0,1,.976-.977.974.974,0,0,1,.977.977,4.5,4.5,0,0,0,1.776,3.683.977.977,0,0,1,.422,1.018.978.978,0,0,1-.795.763c-1.631.274-6.107,2.129-6.107,5.685v8.193a2.25,2.25,0,0,0,2.095,2.444l0-8.77a.977.977,0,0,1,.977-.977.974.974,0,0,1,.977.977l.009,22.29a1.405,1.405,0,0,0,1.42,1.225c.77,0,1.615-.641,1.615-1.225v-11.927a.977.977,0,0,1,.978-.978h.083a.977.977,0,0,1,.978.978v11.929c0,.6.81,1.225,1.576,1.225.746,0,1.536-.629,1.536-1.225,0,0-.016-12.615-.016-12.652l.009-9.641a.978.978,0,0,1,.978-.976.977.977,0,0,1,.977.977v1.274h2.664c2.21,0,3.032-2.213,3.032-3.607v-4.393c0-1.253-.677-1.812-1.351-1.812s-1.363.56-1.363,1.813v3.787a.976.976,0,0,1-.849.969.976.976,0,0,1-1.072-.715c-.05-.179-1.256-4.428-5.012-4.861a.979.979,0,0,1-.849-.8.975.975,0,0,1,.517-1.044c1.095-.557,1.8-2.295,1.648-4.043a.976.976,0,0,1,.887-1.06.977.977,0,0,1,1.06.887,6.919,6.919,0,0,1-1.162,4.6,7.456,7.456,0,0,1,2.878,2.184,3.423,3.423,0,0,1,3.317-3.672,3.142,3.142,0,0,1,2.313,1,3.9,3.9,0,0,1,.993,2.763v4.393c0,2.733-1.866,5.561-4.988,5.561h-2.665l-.006,6.412.017,12.652a3.445,3.445,0,0,1-3.492,3.179A3.843,3.843,0,0,1-9595.23-7980.2Z" transform="translate(9605.286 8026.801)" fill="#373333"></path><path id="cap" d="M-9593.635-7998.2c-2.559-1.353-5.075-.811-7.3-.335a7.72,7.72,0,0,1-3.632.257,1.029,1.029,0,0,1-.238-.1s0,0,0,0a.083.083,0,0,0-.014-.009l-.012-.008-.006,0a1.029,1.029,0,0,1-.2-.165h0a.093.093,0,0,0-.012-.016l-.006-.006-.009-.01a.046.046,0,0,0-.009-.012s0,0,0,0a.971.971,0,0,1-.214-.609c0-4.047.536-5.953,5.435-5.953,2.04,0,3.948.129,4.853,1.69a6.723,6.723,0,0,1,.521,2.674l.013.179a9.107,9.107,0,0,1,1.743.7.975.975,0,0,1,.408,1.318.978.978,0,0,1-.865.521A.978.978,0,0,1-9593.635-7998.2Zm-9.693-1.9a15.013,15.013,0,0,0,1.987-.343,17.284,17.284,0,0,1,4.893-.531,5.926,5.926,0,0,0-.241-1.526c-.25-.431-.883-.718-3.162-.718C-9603-8003.221-9603.3-8002.72-9603.328-8000.1Z" transform="translate(9609.737 8005.174)" fill="#118369"></path></g><g id="person2" transform="translate(957.33 1398.456)"><path id="body-2" data-name="body" d="M-9561.9-8012.971a2.744,2.744,0,0,1-1.849.771,2.369,2.369,0,0,1-2.374-2.236l0-8.13a2.985,2.985,0,0,1-2.849-3.105v-5.767c0-2.7,2.374-4.329,4.228-5.019a4.8,4.8,0,0,1-.915-2.826.687.687,0,0,1,.688-.687.687.687,0,0,1,.688.688,3.169,3.169,0,0,0,1.25,2.592.683.683,0,0,1,.3.715.688.688,0,0,1-.559.537c-1.149.193-4.3,1.5-4.3,4v5.767a1.583,1.583,0,0,0,1.475,1.719l0-6.171a.689.689,0,0,1,.688-.688.689.689,0,0,1,.688.688l0,15.688a.989.989,0,0,0,1,.861c.543,0,1.138-.451,1.138-.861v-8.395a.687.687,0,0,1,.687-.688h.059a.687.687,0,0,1,.688.688v8.4c0,.419.57.861,1.11.861.524,0,1.08-.442,1.08-.861,0,0-.01-8.879-.01-8.9l.006-6.785a.69.69,0,0,1,.688-.687.689.689,0,0,1,.688.688v.9h1.875c1.554,0,2.134-1.558,2.134-2.54v-3.092c0-.88-.478-1.274-.949-1.274s-.961.395-.961,1.274v2.667a.689.689,0,0,1-.6.683.689.689,0,0,1-.755-.5c-.035-.126-.882-3.115-3.526-3.421a.689.689,0,0,1-.6-.561.693.693,0,0,1,.366-.736,2.971,2.971,0,0,0,1.158-2.845.688.688,0,0,1,.625-.745.687.687,0,0,1,.744.625,4.85,4.85,0,0,1-.818,3.234,5.231,5.231,0,0,1,2.026,1.537,2.41,2.41,0,0,1,2.337-2.584,2.207,2.207,0,0,1,1.626.708,2.729,2.729,0,0,1,.7,1.942v3.092a3.7,3.7,0,0,1-3.509,3.915h-1.875l0,4.512.012,8.9a2.425,2.425,0,0,1-2.458,2.237A2.7,2.7,0,0,1-9561.9-8012.971Z" transform="translate(9568.978 8045.768)" fill="#373333"></path><path id="cap-2" data-name="cap" d="M-9560.778-8025.638c-1.8-.951-3.572-.571-5.134-.237a5.417,5.417,0,0,1-2.562.18.555.555,0,0,1-.083-.029.685.685,0,0,1-.283-.221v0l-.007-.009a.055.055,0,0,0,0-.008l0,0a.686.686,0,0,1-.121-.391c0-2.848.378-4.19,3.824-4.19,1.436,0,2.777.093,3.415,1.191a4.722,4.722,0,0,1,.367,1.881l.009.126a6.475,6.475,0,0,1,1.227.494.689.689,0,0,1,.287.931.683.683,0,0,1-.608.365A.7.7,0,0,1-9560.778-8025.638Zm-6.821-1.34a10.633,10.633,0,0,0,1.4-.241,12.192,12.192,0,0,1,3.444-.374,4.123,4.123,0,0,0-.171-1.074c-.174-.3-.619-.5-2.225-.5C-9567.372-8029.172-9567.579-8028.819-9567.6-8026.978Z" transform="translate(9572.109 8030.548)" fill="#66b464"></path></g><g id="person1" transform="translate(1004.821 1399.569)"><path id="body-3" data-name="body" d="M-9647.175-8014.973a2.74,2.74,0,0,1-1.849.772,2.367,2.367,0,0,1-2.374-2.237l0-8.129a2.982,2.982,0,0,1-2.85-3.105v-5.766c0-2.7,2.373-4.329,4.228-5.019a4.791,4.791,0,0,1-.916-2.826.688.688,0,0,1,.688-.689.688.688,0,0,1,.688.689,3.16,3.16,0,0,0,1.25,2.59.688.688,0,0,1,.3.717.687.687,0,0,1-.56.537c-1.148.192-4.3,1.5-4.3,4v5.766a1.584,1.584,0,0,0,1.475,1.721l0-6.172a.689.689,0,0,1,.688-.688.687.687,0,0,1,.688.688l.006,15.686a.988.988,0,0,0,1,.862c.542,0,1.138-.45,1.138-.862v-8.395a.685.685,0,0,1,.687-.686h.061a.685.685,0,0,1,.686.686v8.4c0,.42.571.863,1.11.863s1.082-.443,1.082-.863c0,0-.012-8.877-.012-8.9l.006-6.784a.688.688,0,0,1,.688-.687.685.685,0,0,1,.687.688v.9h1.876c1.554,0,2.134-1.556,2.134-2.538v-3.092c0-.881-.478-1.274-.95-1.274s-.961.394-.961,1.274v2.667a.688.688,0,0,1-.6.682.688.688,0,0,1-.755-.5c-.035-.126-.883-3.117-3.526-3.422a.685.685,0,0,1-.6-.561.69.69,0,0,1,.365-.735,2.967,2.967,0,0,0,1.157-2.846.691.691,0,0,1,.626-.745.69.69,0,0,1,.746.625,4.864,4.864,0,0,1-.818,3.234,5.25,5.25,0,0,1,2.024,1.538,2.411,2.411,0,0,1,2.337-2.585,2.213,2.213,0,0,1,1.627.707,2.745,2.745,0,0,1,.7,1.944v3.092a3.7,3.7,0,0,1-3.508,3.914h-1.878l0,4.513.011,8.9a2.424,2.424,0,0,1-2.457,2.238A2.7,2.7,0,0,1-9647.175-8014.973Z" transform="translate(9654.25 8047.769)" fill="#373333"></path><path id="cap-3" data-name="cap" d="M-9646.052-8027.639c-1.8-.952-3.572-.571-5.134-.236a5.45,5.45,0,0,1-2.558.182.9.9,0,0,1-.1-.038.687.687,0,0,1-.4-.648c0-2.834.386-4.168,3.823-4.168,1.436,0,2.777.091,3.417,1.19a4.672,4.672,0,0,1,.365,1.882l.009.125a6.4,6.4,0,0,1,1.228.5.687.687,0,0,1,.287.929.689.689,0,0,1-.609.366A.706.706,0,0,1-9646.052-8027.639Zm-6.821-1.34a10.654,10.654,0,0,0,1.4-.24,12.116,12.116,0,0,1,3.443-.375,4.136,4.136,0,0,0-.17-1.074c-.175-.3-.621-.5-2.226-.5C-9652.646-8031.172-9652.853-8030.819-9652.873-8028.979Z" transform="translate(9657.382 8032.548)" fill="#c7d340"></path></g></g></svg> 