<?xml version="1.0" encoding="UTF-8"?> <svg xmlns="http://www.w3.org/2000/svg" viewBox="0 0 57 56"><g id="s-distribution" transform="translate(-490 -2388)"><path id="frame" d="M0,0H57V56H0Z" transform="translate(490 2388)" fill="none"></path><g id="icon" transform="translate(497.504 2390.001)"><path id="structure" d="M12.343,73.449a4.076,4.076,0,0,1-.428-.181.864.864,0,0,1-.4-1.113q1.378-3.815,2.761-7.631,4.469-12.343,8.938-24.686.438-1.209.873-2.418a1.136,1.136,0,0,1,1.415-.677.922.922,0,0,1,.684,1.224c-.449,1.25-.892,2.5-1.364,3.746-.091.241-.031.347.2.478.607.344,1.2.714,1.836,1.1V43q0-2.342,0-4.683a1.094,1.094,0,0,1,2.183,0q0,2.342,0,4.683v.275c.2-.12.369-.218.535-.317.467-.28.927-.57,1.4-.838A.218.218,0,0,0,31.1,41.8q-.7-1.9-1.385-3.814a.921.921,0,0,1,.673-1.246,1.132,1.132,0,0,1,1.421.7Q35.953,48.887,40.1,60.33l4.258,11.755c.248.684-.017,1.1-.863,1.363h-.326a1.317,1.317,0,0,1-.973-.957c-.73-2.067-1.486-4.127-2.23-6.19-.043-.119-.055-.209-.26-.135Q34.468,68.042,29.223,69.9c-.138.049-.187.108-.185.238q.013,1,0,2a1.1,1.1,0,0,1-2.181-.008c0-.629-.013-1.258.006-1.886.006-.21-.066-.3-.294-.386q-5.171-1.83-10.332-3.68c-.21-.075-.261-.033-.323.139-.74,2.064-1.5,4.123-2.228,6.19a1.268,1.268,0,0,1-1.019.936Zm16.7-4.7.287-.1q4.94-1.758,9.882-3.513c.233-.082.284-.158.207-.367Q37.383,59.188,35.369,53.6c-.07-.194-.13-.216-.338-.123q-2.858,1.279-5.73,2.537c-.2.086-.265.177-.265.366q.01,6.055.006,12.108v.261m-2.2,0a.493.493,0,0,0,.019-.084q0-6.2,0-12.394c0-.113-.053-.16-.16-.207q-2.929-1.292-5.853-2.592c-.19-.085-.254-.073-.322.115q-2.018,5.6-4.057,11.2c-.068.185-.043.258.18.336q3.922,1.383,7.834,2.785l2.354.84m2.2-13.894c.1-.039.164-.061.227-.089q2.721-1.2,5.445-2.4c.173-.076.148-.154.1-.275q-1.252-3.447-2.5-6.9l-.745-2.058c-.829.5-1.633.986-2.441,1.468-.115.069-.09.16-.09.249q0,1.747,0,3.493v6.51M24.328,43.141c-.025.051-.038.071-.046.093q-1.612,4.446-3.228,8.89c-.059.163.04.2.166.256q1.8.793,3.589,1.588c.672.3,1.345.592,2.05.9v-.513q0-4.741,0-9.481c0-.094.039-.194-.09-.271-.81-.481-1.614-.969-2.438-1.465" transform="translate(-6.952 -22.28)" fill="#363432"></path><path id="waves3" d="M-8269.34-10889.393a.931.931,0,0,1-.781-1.371c.268-.5.531-1.01.756-1.533a15.525,15.525,0,0,0,1.255-5.488,15.564,15.564,0,0,0-1.912-8.2.9.9,0,0,1,.457-1.33,1.119,1.119,0,0,1,1.452.517,17.434,17.434,0,0,1,2.039,6.507,16.487,16.487,0,0,1,.1,1.837,17.473,17.473,0,0,1-2.162,8.383,1.178,1.178,0,0,1-1.026.7A1.068,1.068,0,0,1-8269.34-10889.393Zm-36.095-.208a1.037,1.037,0,0,1-.3-.348,17.5,17.5,0,0,1-2.023-5.839c-.067-.437-.1-.879-.157-1.316-.006-.041-.006-.079-.052-.1v-2.516a4.716,4.716,0,0,0,.145-1,17.408,17.408,0,0,1,1.783-5.688c.07-.14.142-.282.219-.419a1.123,1.123,0,0,1,1.446-.487.9.9,0,0,1,.46,1.309,17.376,17.376,0,0,0-.87,1.867,15.4,15.4,0,0,0-.99,4.125,15.463,15.463,0,0,0,1.429,8.234c.173.364.376.717.551,1.078a.88.88,0,0,1-.328,1.131,1.139,1.139,0,0,1-.629.188A1.181,1.181,0,0,1-8305.435-10889.6Z" transform="translate(8307.966 10907.414)" fill="#dcda30" stroke="rgba(0,0,0,0)" stroke-width="1"></path><path id="center" d="M42.83,15.22A2.968,2.968,0,1,1,39.86,18.2a2.973,2.973,0,0,1,2.97-2.978" transform="translate(-21.839 -9.241)" fill="#138269"></path><path id="waves2" d="M-8306.816-10896.455a11.393,11.393,0,0,1-.941-2.811,11.05,11.05,0,0,1,1.213-7.556,1.207,1.207,0,0,1,1.852-.282.891.891,0,0,1,.285.638.958.958,0,0,1-.16.49,9.534,9.534,0,0,0-1.174,4.2,9.5,9.5,0,0,0,.986,4.629.874.874,0,0,1-.5,1.231,1.3,1.3,0,0,1-.518.109A1.149,1.149,0,0,1-8306.816-10896.455Zm27.734.63a1,1,0,0,1-.928-.824.914.914,0,0,1,.115-.542,9.4,9.4,0,0,0,.941-5.028,9.319,9.319,0,0,0-1.141-3.736.919.919,0,0,1-.139-.718,1.037,1.037,0,0,1,.951-.73,1.122,1.122,0,0,1,1.121.522,11.132,11.132,0,0,1,1.246,3.359,11.723,11.723,0,0,1,.217,2.151,11.2,11.2,0,0,1-1.193,4.979,1.083,1.083,0,0,1-1,.579A1.393,1.393,0,0,1-8279.082-10895.825Z" transform="translate(8313.278 10910.328)" fill="#68b566" stroke="rgba(0,0,0,0)" stroke-width="1"></path><path id="waves1" d="M-8307.352-10900.129a8.078,8.078,0,0,1-.613-3.143,7.894,7.894,0,0,1,.871-3.562.94.94,0,0,1,1.281-.482.947.947,0,0,1,.4,1.328,6.078,6.078,0,0,0-.2,5.149.941.941,0,0,1-.5,1.256.979.979,0,0,1-.361.071A.944.944,0,0,1-8307.352-10900.129Zm14.391.544a.942.942,0,0,1-.5-1.262,6.089,6.089,0,0,0-.205-5.154.942.942,0,0,1,.4-1.312.94.94,0,0,1,1.287.474,8,8,0,0,1,.873,3.622,8.139,8.139,0,0,1-.6,3.065.968.968,0,0,1-.889.64A.945.945,0,0,1-8292.961-10899.585Z" transform="translate(8320.469 10912.149)" fill="#138269" stroke="rgba(0,0,0,0)" stroke-width="1"></path></g></g></svg> 