<?xml version="1.0" encoding="UTF-8"?> <svg xmlns="http://www.w3.org/2000/svg" viewBox="0 0 57 56"><g id="s-technology" transform="translate(-868 -2390)"><g id="icon" transform="translate(4.938 -6.547)"><path id="computer" d="M-7810.264-8483.964a4.254,4.254,0,0,0-.59-.062,5.856,5.856,0,0,1-4.851-3.98,7.85,7.85,0,0,1-.295-1.231v-.887a.875.875,0,0,1,.9-.545q9.062.006,18.126,0a.806.806,0,0,1,.911.913c0,.556,0,.556.56.556h6.464c.291,0,.289,0,.291-.287,0-.153-.006-.31.009-.461a.772.772,0,0,1,.787-.721h.115q9.062,0,18.126,0a.878.878,0,0,1,.9.545v.887c-.021.111-.047.225-.064.338a5.963,5.963,0,0,1-4.571,4.789c-.363.074-.733.1-1.1.147Zm-4.116-4.935a4.42,4.42,0,0,0,4.272,3.394c5.9-.013,11.8,0,17.707,0s11.792,0,17.688,0a4.279,4.279,0,0,0,3.8-2.16,4.1,4.1,0,0,0,.509-1.282c.032-.143,0-.209-.158-.2-.045,0-.09,0-.135,0h-16.186c-.025,0-.051,0-.077,0-.2-.032-.263.063-.246.252a3.369,3.369,0,0,1,0,.385.8.8,0,0,1-.876.856q-4.318,0-8.64,0a1.329,1.329,0,0,1-.154-.006.764.764,0,0,1-.7-.68,2.8,2.8,0,0,1-.02-.479c0-.329,0-.329-.32-.329h-16.263C-7814.427-8489.15-7814.436-8489.138-7814.38-8488.9Zm42.15-3.921c-.28,0-.28,0-.28-.274v-18.82a1.487,1.487,0,0,0-1.1-1.511,3.067,3.067,0,0,0-.88-.051c-.18.006-.256-.047-.25-.237.013-.365,0-.731,0-1.1,0-.1.015-.18.141-.182a4.145,4.145,0,0,1,1.758.225,2.985,2.985,0,0,1,1.842,2.741q0,4.715,0,9.431v9.448c0,.329,0,.329-.329.329h-.906Zm-41.423,0a.137.137,0,0,1-.156-.153c0-.07,0-.142,0-.212v-18.8a2.988,2.988,0,0,1,3.006-3.007c.188,0,.372,0,.56,0,.118,0,.177.043.177.167,0,.391,0,.781,0,1.175,0,.135-.06.176-.188.176l-.194,0a3.188,3.188,0,0,0-.554.026,1.465,1.465,0,0,0-1.289,1.446c0,.077,0,.154,0,.229v18.59c0,.07,0,.141,0,.212a.13.13,0,0,1-.147.155h-1.212Z" transform="translate(8683.965 10932.129)" fill="#242323" stroke="rgba(0,0,0,0)" stroke-width="1"></path><path id="cube-small" d="M64.49,29.044l-.074-.441-1.349-.877q-3.5-1.913-7-3.821a.885.885,0,0,0-.926,0q-2.817,1.547-5.64,3.079c-.484.264-.971.524-1.452.793-.014.008-.027.012-.04.018L46.7,28.6v.361a.453.453,0,0,1,.04.213c0,2.816,0,5.632-.007,8.448a.973.973,0,0,0,.5.915c2.447,1.544,4.884,3.1,7.328,4.653l1.039.513.809-.305a.418.418,0,0,1,.158-.163q3.722-2.359,7.439-4.724a.9.9,0,0,0,.462-.84c-.007-2.823,0-5.645-.008-8.467a.548.548,0,0,1,.023-.161m-1.532,8.085a.4.4,0,0,1-.215.387q-3.089,1.956-6.173,3.92c-.051.033-.1.107-.166.07l-.8.625-.864-.626a.926.926,0,0,1-.1-.067q-3.094-1.965-6.189-3.93a.389.389,0,0,1-.2-.373q.008-3.512,0-7.025c0-.067-.033-.157.035-.2v-.682l1.247-.536,1.737-.948q2.06-1.124,4.117-2.251a.39.39,0,0,1,.426,0q2.6,1.425,5.2,2.843l1.818.888.086.7c.05.047.024.13.024.2,0,2.335,0,4.67.005,7.005" transform="translate(835.957 2384.636)" fill="#adc96a"></path><path id="cube-big" d="M56.712,9.072c0-.077,0-.154,0-.231a.78.78,0,0,0-.423-.667l-6.66-3.662q-2.791-1.534-5.581-3.069C43.162.959,42.276.48,41.392,0h-.385c-.087.042-.175.08-.259.126l-5.093,2.8q-4.712,2.592-9.426,5.181a.953.953,0,0,0-.547.928q.008,8.286,0,16.572a1.018,1.018,0,0,0,.549.971q7.211,4.309,14.407,8.643a.973.973,0,0,0,1.123,0q7.2-4.333,14.407-8.644a1.017,1.017,0,0,0,.549-.97q-.011-8.267-.005-16.533M34.991,13.093c-.5-.3-1.63-.974-1.747-1.045q-2.607-1.573-5.207-3.159,6.139-3.467,12.354-6.8a8.868,8.868,0,0,0,.152,2.343c.076.38.282.841.67.83.366-.009.557-.435.636-.793A7.919,7.919,0,0,0,42,2.09Q48.226,5.415,54.363,8.9L41.753,16.5a.848.848,0,0,1-1.122-.011c0-.137-1.17-.7-1.326-.8l-1.4-.84-2.724-1.637-.025-.014-.038-.023M40.39,33.25c-.069.035-.129-.04-.186-.075q-6.057-3.631-12.111-7.266a.242.242,0,0,1-.127-.113l1.163-.7c.451-.271.9-.54,1.353-.812a.763.763,0,1,0-.785-1.3q-1.132.675-2.261,1.355c-.194.116-.21.108-.21-.114q0-6.9,0-13.8c0-.209.006-.213.182-.107,4.254,2.55,8.548,5.138,12.824,7.691a.36.36,0,0,1,.2.353c-.006,1.213,0,2.425,0,3.638q0,2.266,0,4.531t0,4.535q0,.995,0,1.99c0,.067.034.158-.038.195m14.783-9.076c0,.032,0,.064,0,.1.006.146-.048.167-.17.093-.449-.274-.9-.542-1.352-.813-.319-.191-.637-.384-.957-.574a.762.762,0,1,0-.786,1.3q1.211.731,2.424,1.457c.032.02.063.042.123.083L52.78,26.826q-5.272,3.163-10.544,6.324c-.073.044-.149.145-.234.094s-.032-.155-.032-.236q0-4.888,0-9.776c0-1.615,0-3.23-.007-4.846A.389.389,0,0,1,42.178,18c4.27-2.546,8.525-5.114,12.788-7.668.053-.032.111-.1.169-.072.075.036.037.127.037.193q0,6.86,0,13.721" transform="translate(850.364 2400.931)" fill="#018369"></path></g><path id="frame" d="M0,0H57V56H0Z" transform="translate(868 2390)" fill="none"></path></g></svg> 